<?xml version="1.0" encoding="UTF-8" standalone="no"?>
<svg width="147.997mm" height="209.973mm"
 viewBox="0 0 1748 2480"
 xmlns="http://www.w3.org/2000/svg" xmlns:xlink="http://www.w3.org/1999/xlink"  version="1.2" baseProfile="tiny">
<desc>Generated with Qt</desc>
<defs>
</defs>
<g fill="none" stroke="black" stroke-width="1" fill-rule="evenodd" stroke-linecap="square" stroke-linejoin="bevel" >

<g fill="none" stroke="#000000" stroke-opacity="1" stroke-width="1" stroke-linecap="square" stroke-linejoin="bevel" transform="matrix(1,0,0,1,0,0)"
font-family="Cantarell" font-size="45.8333" font-weight="400" font-style="normal" 
>
</g>

<g fill="none" stroke="#000000" stroke-opacity="1" stroke-width="1" stroke-linecap="square" stroke-linejoin="bevel" transform="matrix(11.8095,0,0,11.8095,0,0)"
font-family="Cantarell" font-size="45.8333" font-weight="400" font-style="normal" 
>
</g>

<g fill="#ffffff" fill-opacity="1" stroke="none" transform="matrix(0.999873,0,0,0.999873,0,0)"
font-family="Cantarell" font-size="45.8333" font-weight="400" font-style="normal" 
>
<path vector-effect="none" fill-rule="evenodd" d="M-1,-1 L1749.03,-1 L1749.03,2481.31 L-1,2481.31 L-1,-1"/>
</g>

<g fill="none" stroke="#000000" stroke-opacity="1" stroke-width="1" stroke-linecap="square" stroke-linejoin="bevel" transform="matrix(11.8095,0,0,11.8095,0,0)"
font-family="Cantarell" font-size="45.8333" font-weight="400" font-style="normal" 
>
</g>

<g fill="none" stroke="#000000" stroke-opacity="1" stroke-width="1" stroke-linecap="square" stroke-linejoin="bevel" transform="matrix(11.8095,0,0,11.8095,0,0)"
font-family="Cantarell" font-size="45.8333" font-weight="400" font-style="normal" 
>
</g>

<g fill="none" stroke="#000000" stroke-opacity="1" stroke-width="1" stroke-linecap="square" stroke-linejoin="bevel" transform="matrix(11.8095,0,0,11.8095,1.08469e-14,0)"
font-family="Cantarell" font-size="45.8333" font-weight="400" font-style="normal" 
>
</g>

<g fill="none" stroke="#000000" stroke-opacity="1" stroke-width="1" stroke-linecap="square" stroke-linejoin="bevel" transform="matrix(11.8095,0,0,11.8095,1.08469e-14,0)"
font-family="Cantarell" font-size="45.8333" font-weight="400" font-style="normal" 
>
</g>

<g fill="#ffffff" fill-opacity="1" stroke="none" transform="matrix(11.8095,0,0,11.8095,1.08469e-14,0)"
font-family="Cantarell" font-size="45.8333" font-weight="400" font-style="normal" 
>
<path vector-effect="non-scaling-stroke" fill-rule="evenodd" d="M0,0 L148,0 L148,210 L0,210 L0,0"/>
</g>

<g fill="none" stroke="#000000" stroke-opacity="1" stroke-width="1" stroke-linecap="square" stroke-linejoin="bevel" transform="matrix(11.8095,0,0,11.8095,1.08469e-14,0)"
font-family="Cantarell" font-size="45.8333" font-weight="400" font-style="normal" 
>
</g>

<g fill="#000000" fill-opacity="0" stroke="none" transform="matrix(0.999873,0,0,0.999873,1.08469e-14,0)"
font-family="Cantarell" font-size="45.8333" font-weight="400" font-style="normal" 
>
<path vector-effect="non-scaling-stroke" fill-rule="evenodd" d="M0,0 L1748,0 L1748,2480 L0,2480 L0,0"/>
</g>

<g fill="#f1f4c7" fill-opacity="1" stroke="#28291f" stroke-opacity="1" stroke-width="3.07087" stroke-linecap="square" stroke-linejoin="bevel" transform="matrix(0.999873,0,0,0.999873,1.08469e-14,0)"
font-family="Cantarell" font-size="45.8333" font-weight="400" font-style="normal" 
>
<path vector-effect="none" fill-rule="evenodd" d="M1125.09,965.346 L1130.69,971.347 L1131.31,972.359 L1131.79,973.15 L1134.09,974.649 L1136.27,976.795 L1142.5,982.952 L1152.6,993.356 L1164.6,1000.16 L1166.02,1001.51 L1166.91,1002.36 L1166.91,1002.36 L1167.3,1003.13 L1175.5,1019.16 L1176.8,1020.86 L1181.66,1026 L1183.51,1027.96 L1186.91,1034.16 L1188.43,1037.58 L1192.04,1045.66 L1192.04,1045.66 L1191.9,1046.27 L1191.73,1047.02 L1191.34,1048.92 L1194.88,1057.55 L1195.12,1058.13 L1196.43,1070.08 L1197.17,1076.93 L1194.91,1086.82 L1194.75,1087.53 L1194.75,1087.53 L1195.12,1088.35 L1195.25,1088.63 L1195.23,1088.71 L1195.16,1089.13 L1193.93,1096.32 L1193.93,1096.32 L1195.62,1101.93 L1195.95,1107.26 L1196.23,1111.62 L1196.39,1114.13 L1196.47,1114.41 L1197,1116.18 L1197.36,1126.93 L1197.4,1128.25 L1197.45,1132.05 L1197.52,1136.52 L1197.6,1143.05 L1196.71,1150.84 L1197.71,1154.54 L1198.16,1163.54 L1198.3,1166.34 L1197.6,1180.13 L1197.6,1182.76 L1197.61,1194.73 L1197.5,1201.43 L1197.31,1213.12 L1197.06,1220.12 L1196.91,1224.51 L1196.11,1229.86 L1196.11,1229.91 L1196.13,1230.08 L1196.81,1235.41 L1196.71,1253.43 L1196.71,1254.29 L1196.8,1260.88 L1197.01,1276.18 L1197.01,1280.9 L1197.01,1286.08 L1201.21,1292.48 L1202.86,1295.21 L1204.71,1298.27 L1205.21,1303.96 L1204.38,1305.51 L1203.31,1307.46 L1203.31,1307.47 L1196.51,1316.19 L1196.51,1316.19 L1196.61,1316.56 L1197.72,1320.54 L1196.91,1322.93 L1194.91,1325.13 L1194.91,1325.13 L1195.39,1331.53 L1193.99,1337.15 L1193.28,1340.02 L1193.17,1341.82 L1193.04,1344.21 L1192.96,1345.61 L1192.22,1347.89 L1191.86,1349 L1192.61,1352.55 L1192.61,1352.55 L1186.42,1352.46 L1179.19,1352.19 L1171.73,1351.93 L1164.14,1351.54 L1156.55,1351.63 L1148.97,1351.6 L1141.5,1351.21 L1133.92,1350.94 L1126.33,1350.91 L1118.86,1350.64 L1111.52,1350.61 L1103.93,1350.7 L1096.46,1350.31 L1088.88,1350.03 L1081.41,1349.76 L1073.82,1349.97 L1066.24,1349.7 L1058.65,1349.42 L1051.18,1349.15 L1043.84,1349.12 L1036.37,1349.08 L1028.78,1348.81 L1022.23,1348.55 L1021.83,1348.57 L1021.83,1348.57 L1023.48,1350.24 L1025.65,1349.88 L1026.6,1352.18 L1025.75,1354.12 L1024.29,1355.8 L1023.2,1357.73 L1022.47,1360.39 L1023.07,1361.36 L1023.29,1364.14 L1023.28,1367.05 L1022.55,1369.7 L1022.53,1372.73 L1022.52,1375.75 L1022.52,1375.75 L1022.39,1378.77 L1022.73,1381.44 L1023.33,1383.98 L1024.28,1385.92 L1025.6,1387.5 L1026.55,1389.44 L1027.15,1391.98 L1027.13,1395 L1027,1397.9 L1027.35,1400.08 L1028.31,1402.26 L1029.26,1404.57 L1029.61,1406.99 L1029.24,1409.65 L1028.62,1411.94 L1028.13,1414.36 L1028.36,1416.78 L1029.32,1418.72 L1030.39,1420.66 L1031.95,1422.36 L1033.63,1423.45 L1035.68,1424.55 L1036.63,1426.49 L1037.23,1428.91 L1037.45,1431.69 L1037.44,1434.72 L1037.43,1437.38 L1037.3,1440.4 L1037.04,1443.06 L1036.43,1445.36 L1035.22,1447.41 L1034.73,1449.7 L1034.11,1452 L1033.74,1454.66 L1033.73,1457.68 L1033.73,1457.68 L1033.71,1460.7 L1033.58,1463.36 L1033.09,1465.78 L1032.48,1468.08 L1031.5,1470.61 L1031.01,1473.03 L1031.24,1475.69 L1031.47,1478.47 L1031.82,1480.89 L1031.81,1483.55 L1031.43,1486.33 L1030.82,1488.63 L1029.73,1490.56 L1028.28,1492.25 L1027.78,1494.54 L1026.57,1496.83 L1025.48,1498.52 L1024.62,1500.45 L1023.41,1502.38 L1023.4,1504.8 L1024.72,1506.5 L1026.76,1507.6 L1028.69,1508.82 L1027.23,1510.75 L1025.66,1512.07 L1023.97,1513.27 L1022.27,1514.59 L1020.34,1515.55 L1018.65,1516.63 L1016.71,1517.84 L1015.02,1519.16 L1013.45,1520.48 L1011.51,1521.44 L1009.82,1522.76 L1007.65,1523.36 L1005.35,1524.08 L1003.18,1524.67 L1001.97,1524.79 L998.595,1525.25 L995.82,1525.61 L994.251,1525.96 L993.823,1526.05 L991.235,1526.55 L988.702,1526.78 L986.651,1526.9 L984.117,1527.49 L981.582,1528.08 L979.409,1528.68 L977.237,1529.03 L974.824,1529.38 L972.289,1529.98 L969.876,1530.33 L967.702,1530.92 L965.531,1531.03 L962.997,1531.63 L960.945,1531.98 L958.41,1532.57 L955.997,1532.8 L953.222,1533.15 L950.449,1533.14 L947.799,1532.52 L945.875,1531.3 L943.831,1530.21 L941.543,1529.35 L939.859,1528.49 L937.574,1527.39 L936.685,1527.07 L934.926,1526.41 L932.276,1525.8 L929.263,1525.42 L926.372,1524.8 L923.72,1524.55 L921.07,1523.93 L918.421,1523.31 L917.886,1523.17 L916.012,1522.69 L913.724,1522.08 L911.077,1520.86 L909.852,1520.16 L909.153,1519.76 L907.434,1519.4 L906.142,1519.14 L906.142,1519.14 L903.968,1519.73 L901.794,1520.45 L900.828,1520.74 L899.862,1521.04 L899.031,1521.57 L898.531,1521.88 L896.355,1523.08 L895.593,1523.33 L893.818,1523.92 L891.644,1524.63 L889.109,1525.22 L886.935,1525.82 L886.935,1525.82 L884.764,1525.93 L882.349,1526.52 L881.037,1526.86 L880.055,1527.11 L878.609,1527.32 L877.641,1527.46 L876.567,1527.56 L875.228,1527.69 L872.453,1528.04 L871.478,1528.18 L869.918,1528.39 L869.918,1528.39 L867.507,1528.38 L867.507,1528.38 L866.352,1528.23 L864.614,1528 L861.842,1527.62 L860.397,1527.31 L858.951,1527 L858.099,1526.55 L856.907,1525.9 L854.983,1524.81 L852.939,1523.59 L850.287,1523.57 L850.286,1523.57 L849.742,1524.88 L849.431,1525.62 L848.942,1526.94 L848.575,1527.92 L848.256,1528.68 L847.72,1529.97 L846.264,1531.78 L844.69,1532.86 L842.997,1533.82 L840.821,1534.77 L838.887,1535.49 L837.407,1535.97 L836.35,1536.32 L834.239,1536.91 L833.813,1537.03 L831.639,1537.63 L829.828,1537.98 L827.051,1538.57 L824.877,1539.16 L822.704,1539.51 L820.169,1539.86 L817.755,1540.21 L815.342,1540.44 L815.342,1540.44 L814.74,1540.39 L812.328,1540.18 L809.678,1539.56 L807.028,1538.95 L804.377,1538.33 L804.377,1538.33 L802.204,1538.68 L800.511,1539.64 L798.334,1540.59 L797.23,1541.14 L796.399,1541.55 L794.224,1542.26 L792.528,1543.58 L792.147,1543.96 L791.194,1544.91 L789.736,1546.84 L788.28,1548.4 L787.324,1549.78 L786.942,1550.33 L785.726,1552.02 L784.109,1553.12 L783.789,1553.34 L781.614,1553.93 L779.203,1553.67 L779.203,1553.67 L776.427,1553.9 L774.619,1554.16 L774.013,1554.25 L771.359,1554.23 L771.359,1554.23 L768.585,1554.22 L768.585,1554.22 L765.81,1554.2 L763.395,1554.55 L762.006,1554.66 L760.62,1554.78 L755.948,1554.86 L754.724,1550.19 L754.486,1549.28 L754.616,1548.46 L755.129,1545.18 L752.482,1538.33 L752.693,1534 L750.936,1530.64 L749.573,1529.94 L748.824,1529.55 L747.085,1520.57 L746.968,1519.96 L747.771,1515.14 L746.294,1513.24 L747.422,1507.72 L747.064,1503.57 L748.319,1499.18 L746.117,1494.09 L746.792,1490.08 L744.171,1480.76 L743.762,1474.9 L741.947,1470.83 L741.755,1468.38 L742.075,1464.82 L742.792,1464.2 L744.506,1464.14 L745.151,1449.55 L745.661,1448.86 L749.63,1448.3 L751.591,1446.77 L752.542,1437.99 L751.756,1434.67 L752.351,1434.06 L753.741,1432.63 L754.135,1429.84 L751.313,1430.95 L749.724,1430.87 L747.769,1427.82 L746.37,1427.07 L745.021,1426.36 L743.59,1423.97 L743.887,1419.24 L745.306,1418.42 L747.565,1418.25 L749.102,1417.36 L753.182,1416.85 L756.439,1416.46 L757.372,1415.75 L758.02,1414.48 L760.297,1410.03 L760.381,1409.87 L760.352,1409.7 L759.732,1406.11 L765.527,1402.22 L765.14,1399.52 L765.763,1397.13 L767.951,1397.4 L770.231,1397.67 L775.316,1397.03 L775.614,1396.99 L780.819,1394.81 L782.38,1392.8 L783.262,1388.51 L786.059,1386.81 L795.729,1387.2 L801.696,1387.03 L802.183,1387.02 L803.296,1386.56 L803.792,1386.35 L804.249,1386.16 L806.341,1383.74 L806.534,1378.88 L806.013,1376.56 L806.01,1376.54 L806.043,1376.1 L806.312,1372.45 L807.381,1371.41 L807.351,1369.51 L806.609,1367.46 L806.376,1363.14 L806.423,1360.44 L806.45,1359.33 L803.466,1357.62 L802.514,1356.23 L802.327,1355.96 L801.972,1355.44 L799.954,1354.59 L799.548,1354.58 L797.529,1354.53 L797.184,1351.65 L797.611,1342.23 L797.384,1341.69 L797.252,1341.37 L796.605,1339.82 L796.461,1339.47 L794.522,1339.21 L792.271,1337.71 L794.125,1336.49 L794.198,1336.44 L795.343,1336.37 L795.597,1335.43 L790.958,1335.41 L790.065,1335.41 L789.811,1334.69 L789.842,1334.34 L789.967,1332.89 L789.293,1331.57 L786.723,1328.25 L783.727,1328.75 L779.988,1325.86 L777.281,1324.61 L776.217,1324.33 L774.767,1323.95 L772.196,1324.19 L771.57,1323.61 L771.326,1322.93 L772.067,1321.63 L772.437,1320.14 L772.381,1317.45 L771.737,1311.31 L773.226,1310.79 L773.378,1309.46 L771.247,1305.32 L768.455,1301.09 L769.439,1296.52 L769.56,1295.96 L768.971,1294.38 L766.433,1292.55 L764.386,1293.12 L763.477,1293.37 L761.829,1292.89 L760.305,1290.75 L761.255,1289.45 L762.001,1288.43 L757.672,1286.01 L757.126,1286.04 L754.916,1286.19 L751.837,1284.66 L750.534,1284.01 L749.913,1284.16 L746.68,1284.9 L745.093,1284.69 L743.884,1282.37 L743.217,1281.1 L741.631,1280.55 L741.068,1280.55 L738.835,1280.54 L736.305,1280.92 L736.72,1277.24 L735.303,1276.2 L733.997,1273.9 L733.443,1271.79 L732.282,1270.18 L732.205,1270.07 L732.036,1270.05 L728.299,1269.42 L727.094,1269.1 L723.534,1267.64 L721.531,1266.17 L721.677,1264.41 L720.71,1262.34 L718.982,1261.47 L716.768,1264.04 L714.762,1264.78 L711.402,1264.15 L707.791,1261.09 L706.418,1259.49 L705,1255.53 L704.06,1252.59 L704.674,1251.71 L704.145,1250.61 L702.677,1249.4 L699.809,1249.48 L698.663,1249.63 L697.68,1250 L698.158,1251.08 L697.404,1251.24 L694.44,1250.14 L693.754,1248.76 L655.888,1187.14 L655.784,1186.97 L656.983,1184.97 L657.391,1184.29 L656.122,1182.87 L654.833,1181.43 L653.33,1181.01 L653.52,1180.36 L656.414,1180.99 L657.866,1180.89 L662.16,1180.62 L664.49,1179.29 L664.177,1176.85 L662.284,1176.39 L657.551,1175.23 L657.434,1175.2 L655.92,1173.43 L655.118,1171.59 L656.143,1168.03 L655.505,1164.91 L656.871,1164.25 L659.912,1164.31 L660.59,1163.17 L662.026,1164.01 L663.055,1164.61 L666.886,1164.17 L667.776,1164.07 L669.836,1163.83 L672.226,1164.13 L673.877,1165.4 L674.431,1168.77 L676.118,1169.44 L677.358,1168.03 L677.854,1167.47 L679.466,1167.08 L681.066,1166.69 L682.444,1165.69 L681.654,1163.69 L680.084,1162.45 L679.241,1162.85 L677.488,1163.67 L677.686,1161.78 L678.625,1161.38 L680.044,1160.77 L681.499,1160.59 L683.488,1159.33 L683.608,1158.75 L683.957,1157.06 L686.124,1155.3 L688.378,1155.92 L689.251,1157.91 L689.244,1158.38 L689.215,1160.17 L691.249,1161.34 L692.89,1164.16 L694.028,1163.61 L694.011,1163.14 L693.984,1162.43 L695.095,1161.3 L697.07,1161.45 L697.424,1161.48 L698.121,1162.07 L703.091,1160.66 L703.504,1158.98 L705.043,1156.84 L706.43,1154.92 L706.668,1154.58 L706.511,1154.29 L705.201,1151.86 L706.135,1149.45 L707.304,1148.42 L707.525,1148.23 L707.406,1148.04 L705.637,1145.31 L705.534,1143.81 L708.341,1141.24 L710.606,1141.7 L710.594,1141.71 L710.593,1141.71 L713.764,1142.37 L713.764,1142.37 L715.934,1141.78 L718.704,1141.44 L721.236,1140.85 L721.664,1140.64 L723.168,1139.89 L724.861,1138.57 L726.557,1136.89 L726.869,1136.06 L727.415,1134.6 L728.27,1132.67 L729.725,1130.98 L731.418,1129.66 L734.427,1129.68 L737.07,1130.31 L739.715,1130.69 L739.715,1130.69 L740.557,1130.49 L742.246,1130.1 L744.417,1129.39 L744.947,1128.82 L745.871,1127.82 L746.718,1127.16 L747.564,1126.5 L747.822,1123.84 L747.237,1121.3 L747.053,1121.15 L745.561,1119.95 L743.521,1119.09 L741.844,1117.99 L741.864,1114.97 L742.841,1112.68 L743.793,1111.48 L744.176,1110.99 L745.869,1109.67 L747.677,1109.25 L748.4,1109.08 L750.572,1108.13 L750.999,1107.97 L752.501,1107.42 L753.84,1106.86 L754.794,1106.46 L756,1105.87 L756.725,1105.51 L758.419,1103.95 L759.874,1102.26 L761.208,1100.58 L763.139,1099.62 L764.593,1098.06 L765.21,1095.64 L765.829,1092.98 L765.872,1092.54 L766.087,1090.32 L766.703,1088.03 L766.988,1086.91 L767.32,1085.61 L768.653,1084.05 L770.108,1082.36 L772.277,1081.77 L775.046,1081.43 L775.046,1081.43 L776.249,1081.74 L777.448,1082.05 L777.448,1082.05 L779.854,1082.06 L779.854,1082.06 L781.118,1081.89 L782.382,1081.72 L783.049,1080.87 L783.716,1080.03 L784.321,1079.38 L785.169,1078.47 L786.263,1076.78 L787.718,1074.85 L787.862,1074.51 L788.573,1072.8 L790.266,1071.48 L791.958,1070.16 L792.231,1070.03 L793.889,1069.21 L793.889,1069.21 L796.895,1069.22 L799.425,1068.64 L800.518,1066.95 L800.994,1065.67 L801.374,1064.65 L802.469,1062.73 L802.944,1061.59 L803.324,1060.67 L803.939,1058.38 L805.155,1056.33 L806.007,1054.83 L806.249,1054.4 L807.941,1053.08 L808.799,1052.49 L809.874,1051.76 L809.874,1051.76 L811.374,1052.15 L812.275,1052.38 L813.233,1053.11 L814.19,1053.85 L815.867,1054.94 L818.633,1054.96 L820.924,1054.01 L821.424,1053.51 L822.255,1052.69 L823.221,1052.03 L824.188,1051.37 L824.188,1051.37 L826.713,1051.38 L826.713,1051.38 L828.63,1052.48 L829.264,1053.78 L829.581,1054.42 L830.289,1056.61 L830.513,1059.39 L831.219,1061.94 L831.809,1063.75 L833.492,1063.82 L835.176,1063.89 L836.855,1064.63 L838.892,1065.85 L841.171,1066.96 L843.451,1067.82 L846.091,1068.8 L846.517,1068.85 L849.095,1069.18 L849.096,1069.18 L851.862,1069.2 L851.862,1069.2 L854.628,1069.21 L854.628,1069.21 L857.512,1069.59 L859.912,1070.45 L861.83,1071.55 L864.108,1072.78 L865.823,1072.99 L867.113,1073.16 L869.879,1073.17 L869.879,1073.17 L872.645,1073.19 L875.052,1072.84 L876.302,1072.45 L877.342,1072.13 L879.51,1071.54 L881.316,1071.18 L883.845,1070.59 L884.898,1070.45 L886.372,1070.24 L888.54,1069.65 L888.541,1069.65 L891.306,1069.67 L892.598,1069.51 L894.074,1069.32 L896.481,1069.09 L899.249,1068.74 L901.417,1068.15 L901.967,1067.95 L903.345,1067.44 L905.275,1066.48 L907.204,1065.52 L907.733,1065.04 L908.655,1064.2 L909.689,1062.89 L909.987,1062.51 L911.439,1060.83 L912.287,1059.7 L912.893,1058.9 L913.177,1058.26 L913.746,1056.97 L914.839,1054.92 L916.202,1053.75 L916.652,1053.36 L918.459,1052.64 L921.109,1051.81 L922.182,1051.28 L923.038,1050.85 L924.609,1049.53 L925.822,1047.48 L926.076,1045.18 L925.248,1042.64 L924.177,1040.7 L923.416,1039.15 L923.225,1038.76 L922.272,1037.18 L921.201,1035.24 L920.77,1034.19 L920.252,1032.93 L919.902,1030.88 L919.314,1028.7 L919.329,1025.91 L919.342,1023.49 L919.359,1020.47 L919.55,1019.12 L919.735,1017.81 L919.75,1015.15 L919.765,1012.37 L919.539,1010.79 L919.418,1009.95 L919.128,1007.93 L919.071,1007.53 L919.034,1007.07 L918.846,1004.74 L918.861,1002.08 L918.877,999.298 L919.493,996.64 L920.108,994.103 L921.083,991.689 L921.617,990.256 L921.937,989.395 L923.03,987.466 L924.72,986.145 L926.41,984.824 L928.338,983.867 L930.625,983.275 L932.793,982.561 L933.176,982.326 L936.159,982.338 L938.8,982.957 L941.566,982.731 L943.732,982.137 L946.021,981.182 L947.709,980.103 L949.638,979.146 L951.567,977.947 L953.856,976.991 L955.662,976.276 L958.189,975.684 L960.713,975.698 L963.118,975.348 L965.522,975.361 L968.163,975.979 L971.165,976.359 L974.167,976.737 L976.808,977.235 L979.207,978.215 L981.848,978.834 L984.488,979.452 L987.129,980.071 L989.768,980.931 L992.77,981.551 L995.171,981.927 L998.414,982.306 L1000.69,983.164 L1003.46,983.179 L1006.22,983.193 L1008.99,983.207 L1011.39,982.977 L1014.15,982.99 L1016.56,982.64 L1018.85,982.046 L1021.61,981.818 L1023.42,981.344 L1025.7,980.75 L1027.87,980.156 L1030.16,979.2 L1032.68,978.245 L1034.49,977.648 L1036.54,976.57 L1038.34,975.974 L1040.63,975.26 L1042.8,974.665 L1044.72,973.949 L1046.65,972.99 L1049.18,972.398 L1051.34,971.803 L1053.87,971.211 L1056.03,970.495 L1057.96,969.9 L1060.49,969.307 L1062.41,968.833 L1064.58,968.238 L1066.98,967.886 L1069.27,967.05 L1071.43,966.698 L1074.2,966.106 L1076.72,966.118 L1079.36,966.735 L1082,966.988 L1084.17,966.636 L1111.82,946.548 L1114.92,949.481 L1118.79,953.145 L1119.94,954.801 L1121.29,956.744 L1121.29,956.744 L1124.09,962.046 L1124.31,962.765 L1125.09,965.346"/>
<path vector-effect="none" fill-rule="evenodd" d="M950.736,560.515 L952.089,561.866 L952.089,561.867 L954.99,563.069 L960.824,567.404 L965.501,570.879 L987.225,585.101 L991.331,586.905 L1002.17,593.379 L1009.66,597.851 L1039.48,615.653 L1047.68,620.86 L1050.15,622.143 L1054.79,624.564 L1061.29,628.902 L1062,629.373 L1063.71,630.386 L1073.01,635.882 L1077.19,638.586 L1080.41,640.67 L1080.41,640.67 L1081.61,663.404 L1081.7,677.116 L1081.75,678.169 L1081.75,678.312 L1081.9,681.919 L1082.46,695.974 L1082.5,697.031 L1082.97,715.539 L1083.19,724.047 L1083.48,727.156 L1084,732.851 L1083.19,754.565 L1083.19,771.972 L1083.94,776.633 L1085.78,788.082 L1084.58,793.684 L1084.28,809.893 L1081.78,817.191 L1080.68,820.214 L1079.77,822.694 L1078.73,825.299 L1076.97,829.695 L1074.71,835.335 L1073.57,838.199 L1075.17,843.201 L1080.97,854.606 L1080.97,854.607 L1080.87,858.564 L1080.77,862.211 L1081.87,864.311 L1082.43,864.486 L1083.47,864.81 L1087.67,862.313 L1087.68,862.313 L1094.48,859.615 L1094.48,859.615 L1096.28,866.716 L1096.47,868.059 L1099.08,886.922 L1099.15,890.937 L1099.23,896.114 L1099.28,899.027 L1099.16,899.93 L1098.58,904.227 L1099.38,909.329 L1099.58,914.332 L1099.73,919.651 L1099.78,921.635 L1101.88,930.535 L1102.9,932.725 L1107.38,942.341 L1111.82,946.548 L1084.17,966.636 L1082,966.988 L1079.36,966.735 L1076.72,966.118 L1074.2,966.106 L1071.43,966.698 L1069.27,967.05 L1066.98,967.886 L1064.58,968.238 L1062.41,968.833 L1060.49,969.307 L1057.96,969.9 L1056.03,970.495 L1053.87,971.211 L1051.34,971.803 L1049.18,972.398 L1046.65,972.99 L1044.72,973.949 L1042.8,974.665 L1040.63,975.26 L1038.34,975.974 L1036.54,976.57 L1034.49,977.648 L1032.68,978.245 L1030.16,979.2 L1027.87,980.156 L1025.7,980.75 L1023.42,981.344 L1021.61,981.818 L1018.85,982.046 L1016.56,982.64 L1014.15,982.99 L1011.39,982.977 L1008.99,983.207 L1006.22,983.193 L1003.46,983.179 L1000.69,983.164 L998.414,982.306 L995.171,981.927 L992.77,981.551 L989.768,980.931 L987.129,980.071 L984.488,979.452 L981.848,978.834 L979.207,978.215 L976.808,977.235 L974.167,976.737 L971.165,976.359 L968.163,975.979 L965.522,975.361 L963.118,975.348 L960.713,975.698 L958.189,975.684 L955.662,976.276 L953.856,976.991 L951.567,977.947 L949.638,979.146 L947.709,980.103 L946.021,981.182 L943.732,982.137 L941.566,982.731 L938.8,982.957 L936.159,982.338 L933.176,982.326 L932.793,982.561 L930.625,983.275 L928.338,983.867 L926.41,984.824 L924.72,986.145 L923.03,987.466 L921.937,989.395 L921.617,990.256 L921.083,991.689 L920.108,994.103 L919.493,996.64 L918.877,999.298 L918.861,1002.08 L918.846,1004.74 L919.034,1007.07 L919.071,1007.53 L919.128,1007.93 L919.418,1009.95 L919.539,1010.79 L919.765,1012.37 L919.75,1015.15 L919.735,1017.81 L919.55,1019.12 L919.359,1020.47 L919.342,1023.49 L919.329,1025.91 L919.314,1028.7 L919.902,1030.88 L920.252,1032.93 L920.77,1034.19 L921.201,1035.24 L922.272,1037.18 L923.225,1038.76 L923.416,1039.15 L924.177,1040.7 L925.248,1042.64 L926.076,1045.18 L925.822,1047.48 L924.609,1049.53 L923.038,1050.85 L922.182,1051.28 L921.109,1051.81 L918.459,1052.64 L916.652,1053.36 L916.202,1053.75 L914.839,1054.92 L913.746,1056.97 L913.177,1058.26 L912.893,1058.9 L912.287,1059.7 L911.439,1060.83 L909.987,1062.51 L909.689,1062.89 L908.655,1064.2 L907.733,1065.04 L907.204,1065.52 L905.275,1066.48 L903.345,1067.44 L901.967,1067.95 L901.417,1068.15 L899.249,1068.74 L896.481,1069.09 L894.074,1069.32 L892.598,1069.51 L891.306,1069.67 L888.541,1069.65 L888.54,1069.65 L886.372,1070.24 L884.898,1070.45 L883.845,1070.59 L881.316,1071.18 L879.51,1071.54 L877.342,1072.13 L876.302,1072.45 L875.052,1072.84 L872.645,1073.19 L869.879,1073.17 L869.879,1073.17 L867.113,1073.16 L865.823,1072.99 L864.108,1072.78 L861.83,1071.55 L859.912,1070.45 L857.512,1069.59 L854.628,1069.21 L854.628,1069.21 L851.862,1069.2 L851.862,1069.2 L849.096,1069.18 L849.095,1069.18 L846.517,1068.85 L846.091,1068.8 L843.451,1067.82 L841.171,1066.96 L838.892,1065.85 L836.855,1064.63 L835.176,1063.89 L833.492,1063.82 L831.809,1063.75 L831.219,1061.94 L830.513,1059.39 L830.289,1056.61 L829.581,1054.42 L829.264,1053.78 L828.63,1052.48 L826.713,1051.38 L826.713,1051.38 L824.188,1051.37 L824.188,1051.37 L823.221,1052.03 L822.255,1052.69 L821.424,1053.51 L820.924,1054.01 L818.633,1054.96 L815.867,1054.94 L814.19,1053.85 L813.233,1053.11 L812.275,1052.38 L811.374,1052.15 L809.874,1051.76 L809.874,1051.76 L808.799,1052.49 L807.941,1053.08 L806.249,1054.4 L806.007,1054.83 L805.155,1056.33 L803.939,1058.38 L803.324,1060.67 L802.944,1061.59 L802.469,1062.73 L801.374,1064.65 L800.994,1065.67 L800.518,1066.95 L799.425,1068.64 L796.895,1069.22 L793.889,1069.21 L793.889,1069.21 L792.231,1070.03 L791.958,1070.16 L790.266,1071.48 L788.573,1072.8 L787.862,1074.51 L787.718,1074.85 L786.263,1076.78 L785.169,1078.47 L784.321,1079.38 L783.716,1080.03 L783.049,1080.87 L782.382,1081.72 L781.118,1081.89 L779.854,1082.06 L779.854,1082.06 L777.448,1082.05 L777.448,1082.05 L776.249,1081.74 L775.046,1081.43 L775.046,1081.43 L772.277,1081.77 L770.108,1082.36 L768.653,1084.05 L767.32,1085.61 L766.988,1086.91 L766.703,1088.03 L766.087,1090.32 L765.872,1092.54 L765.829,1092.98 L765.21,1095.64 L764.593,1098.06 L763.139,1099.62 L761.208,1100.58 L759.874,1102.26 L758.419,1103.95 L756.725,1105.51 L756,1105.87 L754.794,1106.46 L753.84,1106.86 L752.501,1107.42 L750.999,1107.97 L750.572,1108.13 L748.4,1109.08 L747.677,1109.25 L745.869,1109.67 L744.176,1110.99 L743.793,1111.48 L742.841,1112.68 L741.864,1114.97 L741.844,1117.99 L743.521,1119.09 L745.561,1119.95 L747.053,1121.15 L747.237,1121.3 L747.822,1123.84 L747.564,1126.5 L746.718,1127.16 L745.871,1127.82 L744.947,1128.82 L744.417,1129.39 L742.246,1130.1 L740.557,1130.49 L739.715,1130.69 L739.715,1130.69 L737.07,1130.31 L734.427,1129.68 L731.418,1129.66 L729.725,1130.98 L728.27,1132.67 L727.415,1134.6 L726.869,1136.06 L726.557,1136.89 L724.861,1138.57 L723.168,1139.89 L721.664,1140.64 L721.236,1140.85 L718.704,1141.44 L715.934,1141.78 L713.764,1142.37 L713.764,1142.37 L710.593,1141.71 L710.594,1141.71 L710.606,1141.7 L708.341,1141.24 L708.667,1140.95 L710.628,1140.52 L711.903,1137.95 L714.284,1138.56 L714.744,1138.68 L716.324,1136.64 L716.478,1135.17 L715.609,1133.14 L715.382,1132.61 L715.569,1130.84 L715.951,1129.21 L718.229,1126.21 L716.404,1123.17 L715.843,1120.74 L711.79,1116.44 L710.921,1109.31 L712.041,1106.75 L712.422,1104.32 L712.859,1101.53 L711.226,1099.23 L710.625,1096.57 L707.057,1093.9 L705.591,1093.9 L704.82,1093.9 L700.893,1085.34 L694.869,1072.21 L693.584,1071.15 L694.337,1065.7 L691.19,1061.88 L691.052,1059.06 L688.721,1058.34 L688.549,1051.9 L689.122,1049.54 L692.305,1049.73 L692.422,1044.77 L690.6,1044.54 L693.565,1034.12 L696.493,1031.28 L700.143,1030.94 L701.038,1029.65 L701.563,1026.73 L701.774,1024.56 L700.734,1019.93 L699.089,1016.53 L698.585,1012.04 L697.511,1010.95 L704.612,1006 L706.158,1005.92 L707.714,1007.26 L709.168,1007.1 L710,1004.39 L710.955,1003.36 L712.616,1002.98 L713.641,999.211 L716.041,994.864 L717.109,990.746 L719.351,988.774 L722.099,984.074 L716.459,974.93 L714.098,970.848 L710.577,964.676 L710.261,964.121 L710.636,961.936 L710.891,961.548 L714.238,956.436 L717.583,953.713 L720.479,950.333 L725.274,941.981 L726.337,941.574 L727.75,942.786 L731.57,942.678 L732.658,940.197 L732.957,935.753 L730.376,933.807 L728.362,924.36 L728.926,923.552 L731.076,920.472 L736.53,900.793 L737.218,898.31 L736.292,897.581 L735.507,896.963 L732.225,894.38 L732.153,891.303 L732.146,890.989 L731.453,889.979 L730.88,889.99 L727.861,890.047 L723.456,887 L719.846,886.663 L718.302,885.232 L718.261,883.739 L717.208,882.685 L714.422,883.722 L711.951,883.798 L708.885,883.621 L706.567,878.245 L710.305,873.7 L710.602,872.996 L711.268,871.416 L709.721,867.611 L704.367,862.162 L702.859,861.55 L701.83,862.973 L700.585,862.881 L698.92,861.138 L693.871,860.686 L691.885,859.169 L690.592,857.221 L687.26,856.896 L685.841,858.139 L682.178,858.144 L679.62,857.492 L678.362,856.488 L673.933,856.932 L672.303,856.111 L669.75,858.891 L660.388,859.857 L654.444,857.895 L649.052,856.309 L645.613,859.258 L642.828,861.69 L642.577,861.91 L642.478,862.811 L644.81,867.39 L644.173,868.619 L642.281,869.693 L639.135,877.227 L637.56,877.934 L635.706,878.766 L632.836,878.547 L627.333,880.672 L625.081,881.743 L621.463,883.685 L616.552,886.404 L612.22,886.07 L607.799,886.74 L605.717,884.35 L600.869,882.995 L600.727,882.299 L600.106,879.246 L594.239,873.055 L593.09,870.813 L592.67,863.818 L592.654,863.545 L593.892,861.398 L596.594,861.71 L603.166,865.315 L605.564,865.873 L609.826,865.42 L610.165,865.384 L611.569,864.884 L612.374,863.043 L612.893,861.856 L613.945,861.156 L617.881,861.519 L620.34,859.774 L620.426,859.713 L622.063,858.551 L624.1,857.491 L628.029,855.446 L629.35,853.245 L628.722,850.945 L627.581,849.499 L620.915,845.59 L616.103,844.958 L612.32,846.241 L604.681,847.301 L599.632,845.533 L597.115,841.103 L596.529,837.131 L598.17,829.264 L597.997,825.102 L598.273,824.675 L598.664,824.07 L599.738,823.595 L602.48,823.935 L608.449,827.091 L609.462,827.626 L618.903,823.808 L619.386,823.613 L620.514,823.892 L623.357,824.598 L627.179,823.605 L633.113,824.466 L635.087,823.381 L635.097,823.376 L639.695,823.163 L644.634,825.54 L644.862,825.649 L645.093,825.643 L645.672,825.628 L648.567,825.553 L655.161,822.577 L657.465,820.991 L659.763,818.285 L659.737,816.267 L656.245,811.762 L655.483,809.398 L659.394,794.66 L658.681,794.372 L657.082,792.328 L653.878,790.24 L652.753,786.665 L650.742,780.761 L646.151,779.803 L646.456,772.382 L645.011,769.053 L644.24,763.739 L643.41,761.929 L640.821,760.229 L634.634,759.641 L632.746,757.729 L637.037,744.441 L637.078,741.86 L636.152,738.515 L635.939,737.745 L636.97,737.298 L639.344,736.269 L639.66,735.297 L639.745,733.711 L638.081,730.868 L637.941,727.663 L641.974,723.59 L642.589,718.639 L644.973,714.843 L646.542,714.067 L649.255,705.193 L648.53,695.474 L647.119,690.528 L647.319,686.123 L646.697,682.852 L647.15,677.579 L648.316,673.224 L649.464,671.182 L650.307,669.684 L651.371,669.039 L656.898,668.15 L659.436,667.114 L661.559,666.248 L662.151,665.434 L661.623,660.692 L653.821,652.989 L650.432,645.042 L649.468,639.612 L651.418,636.03 L652.15,633.206 L650.721,625.616 L651.22,624.521 L651.244,624.469 L652.954,623.975 L656.867,626.712 L664.744,627.303 L668.875,629.824 L671.271,629.408 L671.399,629.385 L672.42,630.909 L673.487,632.49 L674.791,634.439 L675.735,636.381 L676.68,638.325 L677.742,640.633 L677.598,643.658 L677.169,644.804 L676.74,645.951 L676.392,647.244 L676.123,648.245 L676.123,648.245 L676.294,649.655 L676.461,651.031 L676.56,651.736 L676.802,653.455 L677.86,654.835 L678.108,655.159 L678.269,655.3 L679.776,656.624 L682.177,656.521 L682.177,656.521 L682.235,656.524 L685.175,656.666 L687.932,656.929 L689.843,657.969 L689.964,658.034 L691.512,659.498 L692.577,661.443 L693.179,661.79 L694.488,662.546 L695.722,662.827 L697.243,663.173 L697.243,663.173 L699.17,662.219 L701.099,660.903 L703.858,660.924 L703.859,660.924 L704.611,661.243 L705.892,661.786 L707.001,663.233 L707.199,663.49 L709.234,663.989 L711.994,664.01 L711.994,664.01 L712.832,663.816 L714.518,663.424 L714.518,663.424 L717.514,663.81 L719.909,664.433 L720.68,665.054 L721.578,665.777 L720.971,666.92 L720.362,668.066 L719.269,669.753 L717.58,671.071 L717.47,671.953 L717.324,673.126 L717.905,675.672 L718.023,676.038 L718.609,677.856 L720.279,679.199 L721.224,681.142 L722.236,681.572 L723.257,682.005 L725.89,682.992 L727.562,684.093 L727.935,684.545 L728.87,685.676 L729.935,687.62 L730.881,689.563 L732.188,691.267 L733.858,692.61 L735.889,693.835 L738.525,694.46 L738.525,694.46 L740.134,693.563 L740.453,693.385 L741.211,693.07 L742.739,692.433 L744.904,691.844 L746.593,690.525 L748.108,690.318 L749.115,690.18 L749.619,690.063 L751.639,689.594 L751.64,689.594 L754.639,689.615 L757.396,689.998 L757.396,689.998 L760.158,689.655 L760.158,689.655 L762.798,689.674 L765.319,689.45 L765.319,689.45 L767.011,687.768 L767.864,685.838 L767.864,685.838 L770.622,686.099 L772.291,687.563 L773.962,688.906 L774.124,689.117 L775.269,690.609 L776.102,691.693 L776.577,692.312 L776.809,692.593 L777.886,693.894 L779.814,692.698 L780.906,691.012 L782.595,689.693 L785.714,689.714 L785.714,689.714 L787.386,690.815 L788.266,692.964 L788.694,692.518 L789.805,688.049 L789.225,685.262 L788.879,683.202 L788.173,681.262 L787.588,679.08 L786.884,676.897 L785.937,674.954 L785.308,673.662 L784.991,673.011 L784.873,672.645 L784.287,670.828 L783.992,670.019 L783.581,668.888 L782.996,666.705 L783.015,664.044 L783.628,662.145 L783.873,661.388 L785.322,660.067 L786.416,658.018 L786.225,655.94 L786.193,655.596 L786.212,652.935 L786.354,652.436 L787.073,649.916 L787.797,649.255 L788.521,648.595 L790.211,647.034 L791.303,645.347 L792.278,643.055 L792.376,641.92 L792.539,640.032 L792.4,638.518 L792.317,637.608 L792.214,636.773 L791.976,634.827 L792.24,633.134 L792.353,632.408 L792.25,631.681 L792.01,629.988 L792.032,626.961 L792.051,624.177 L792.316,622.317 L792.43,621.519 L793.048,618.861 L793.668,615.96 L794.524,613.667 L795.502,611.012 L795.822,610.243 L796.355,608.962 L797.448,607.036 L797.955,606.08 L798.663,604.744 L799.327,603.149 L799.517,602.694 L800.001,602.051 L800.969,600.766 L802.06,599.079 L803.149,597.758 L804.358,596.473 L804.961,595.833 L806.052,594.146 L806.535,593.585 L807.502,592.462 L808.595,590.535 L810.045,588.851 L811.257,586.925 L812.365,585.523 L812.588,585.24 L813.801,583.193 L814.412,581.553 L814.656,580.899 L815.274,578.242 L816.489,575.95 L814.475,572.426 L814.858,569.166 L812.244,565.759 L813.936,563.832 L817.544,562.163 L821.517,559.651 L821.517,559.651 L823.105,560.87 L823.424,561.115 L827.246,563.079 L830.01,562.131 L831.098,560.806 L831.098,560.806 L833.493,561.067 L838.865,564.37 L839.93,566.311 L840.289,567.876 L840.512,568.854 L842.765,572.502 L843.448,572.645 L845.159,573.002 L845.159,573.002 L846.535,572.32 L847.084,572.048 L849.745,568.433 L850.243,567.938 L851.072,567.114 L853.831,566.888 L855.815,565.873 L857.8,564.859 L862.625,560.291 L865.024,559.946 L866.453,561.406 L866.453,561.406 L868.251,561.3 L871.244,561.921 L871.244,561.921 L873.643,561.575 L876.274,562.559 L876.49,562.84 L877.581,564.262 L879.01,565.604 L880.679,567.065 L883.073,567.564 L883.073,567.564 L884.998,566.366 L885.481,565.726 L886.449,564.442 L886.76,563.695 L887.301,562.391 L887.966,560.606 L888.155,560.097 L889.604,558.412 L891.288,557.786 L891.526,557.697 L891.527,557.697 L894.283,557.715 L896.555,558.579 L899.548,558.96 L901.941,559.58 L904.935,559.961 L907.688,560.583 L910.56,561.207 L910.56,561.207 L913.316,561.224 L913.317,561.224 L914.787,560.88 L915.837,560.634 L917.039,560.038 L917.761,559.68 L919.207,558.36 L920.494,556.864 L920.656,556.675 L920.899,556.352 L922.106,554.746 L922.936,553.693 L923.435,553.06 L924.647,550.773 L924.934,549.701 L925.261,548.477 L926.018,546.44 L926.114,546.183 L926.33,545.545 L926.973,543.65 L926.973,543.65 L927.001,543.673 L928.16,544.641 L929.615,545.561 L931.164,546.541 L934.088,548.966 L934.666,549.445 L937.132,551.035 L939.174,552.352 L939.782,552.762 L943.78,555.459 L944.756,556.295 L947.282,558.459 L950.284,560.062 L950.284,560.063 L950.736,560.515"/>
<path vector-effect="none" fill-rule="evenodd" d="M1181.97,2014.67 L1180.95,2021.07 L1182.8,2022.34 L1182.85,2022.38 L1183.45,2022.27 L1186.85,2021.68 L1187.55,2023.29 L1185.14,2025.69 L1180.43,2028.88 L1179.63,2031.38 L1179.63,2031.38 L1180.45,2033.78 L1180.48,2033.89 L1180.62,2034.28 L1182.79,2034.17 L1184.23,2034.09 L1184.23,2034.09 L1185.72,2034.99 L1186.62,2037.5 L1185.5,2040 L1184.51,2042.2 L1184.51,2042.2 L1184.57,2043.66 L1184.7,2046.7 L1185.22,2047.28 L1185.8,2047.91 L1188.6,2048.99 L1191,2049.92 L1191.63,2050.64 L1192.4,2051.53 L1192.4,2051.53 L1192.29,2051.63 L1189.18,2054.52 L1188.38,2056.32 L1189.16,2057.58 L1189.88,2058.72 L1189.88,2058.73 L1188.7,2059.98 L1188.37,2060.33 L1185.77,2061.37 L1184.66,2061.82 L1182.46,2063.81 L1181.05,2066.31 L1179.67,2066.44 L1177.74,2066.61 L1177.74,2066.61 L1177.23,2069.49 L1177.17,2069.8 L1177.14,2070.01 L1177.3,2072.09 L1177.53,2074.91 L1177.12,2075.5 L1176.62,2076.21 L1174.62,2077.31 L1174.62,2077.31 L1173.36,2079.39 L1172.81,2080.3 L1171.68,2080.42 L1170.91,2080.5 L1169.6,2082.8 L1169.6,2082.8 L1170.2,2082.7 L1171.19,2083.7 L1171.7,2084.21 L1175.9,2084.66 L1176.4,2084.72 L1176.4,2084.72 L1177.19,2086.22 L1178.49,2088.73 L1182.16,2092.4 L1182.16,2092.4 L1182.16,2092.4 L1185.12,2101.08 L1185.78,2103.01 L1185.78,2103.01 L1185.24,2103.59 L1184.57,2104.31 L1182.16,2105.2 L1182.16,2105.2 L1181.95,2109.3 L1184.84,2112.72 L1185.29,2114.37 L1185.53,2115.22 L1185.28,2115.98 L1184.82,2117.42 L1185.08,2118.56 L1185.11,2118.72 L1188.3,2122.64 L1188.3,2122.64 L1191.2,2122.85 L1192.83,2122.38 L1193.91,2122.07 L1193.91,2122.07 L1195.81,2122.67 L1195.81,2122.67 L1198.59,2128.89 L1202.12,2130.2 L1202.91,2130.49 L1203.14,2130.73 L1204.94,2131.03 L1207.06,2129.31 L1208.25,2128.34 L1208.25,2128.34 L1209.16,2128.21 L1211.76,2127.84 L1213.16,2128.65 L1213.16,2128.65 L1213.33,2128.99 L1213.86,2130.05 L1212.85,2133.15 L1212.85,2133.15 L1211.43,2134.98 L1209.53,2137.45 L1209.53,2137.45 L1210.07,2138.58 L1210.63,2139.75 L1211.33,2140.45 L1212.73,2140.56 L1213.27,2140.33 L1217.34,2138.57 L1217.34,2138.57 L1219.34,2142.27 L1222.74,2141.98 L1222.74,2141.98 L1223.16,2143.18 L1223.44,2143.99 L1222.44,2146.09 L1222.76,2146.5 L1223.09,2146.92 L1224.63,2148.89 L1225.11,2158.21 L1225.05,2158.8 L1225.01,2159.21 L1222.81,2159.2 L1221.81,2160.7 L1221.6,2163 L1221.6,2163 L1222.4,2164.71 L1225.6,2165.52 L1227,2166.72 L1227,2166.72 L1229.27,2165.43 L1229.81,2165.12 L1229.81,2165.12 L1231.9,2167.83 L1231.9,2167.83 L1233.31,2167.53 L1234.71,2165.73 L1236.42,2165.64 L1236.42,2165.65 L1236.91,2166.64 L1236.87,2166.94 L1236.61,2169.04 L1236.61,2169.04 L1236.66,2169.16 L1237.4,2170.85 L1239.41,2171.25 L1239.41,2171.25 L1240.41,2173.15 L1239.34,2174.89 L1239,2175.45 L1239,2175.45 L1240.2,2176.66 L1241.8,2176.26 L1241.8,2176.26 L1241.88,2176.37 L1242.09,2176.66 L1243,2177.95 L1244.03,2178.8 L1246.25,2180.65 L1246.25,2180.65 L1246.22,2180.98 L1246.1,2182.35 L1244.54,2183.44 L1244.58,2183.74 L1244.74,2184.95 L1246.41,2185.9 L1247.23,2186.36 L1247.28,2186.69 L1248.21,2192.47 L1248.21,2192.47 L1250.9,2196.18 L1255.99,2199.91 L1257.14,2201.33 L1257.29,2201.52 L1257.17,2201.81 L1256.78,2202.82 L1254.38,2203.41 L1254.36,2209.21 L1256,2210.56 L1256.45,2210.92 L1256.45,2210.92 L1255.98,2211.3 L1254.94,2212.12 L1255.62,2218.33 L1257.58,2219.61 L1259.02,2220.55 L1260.23,2222.95 L1260.64,2223.75 L1261.84,2227.08 L1262.93,2230.07 L1262.48,2232.22 L1262.32,2232.97 L1260.91,2234.87 L1260.11,2235.06 L1261.09,2236.93 L1262.41,2239.47 L1263.91,2240.28 L1265.07,2242.87 L1266.7,2246.49 L1266.49,2248.89 L1262.89,2250.79 L1262.89,2250.79 L1265.58,2255 L1268.39,2256.11 L1268.39,2256.11 L1270.48,2258.91 L1267.27,2260.51 L1263.31,2260.33 L1258.16,2260.09 L1254.9,2259.82 L1254.46,2259.78 L1254.46,2259.78 L1254.37,2260.49 L1254.05,2262.98 L1251.84,2264.28 L1247.96,2264.45 L1245.34,2264.57 L1243.19,2265.67 L1239.92,2267.36 L1233.69,2268.9 L1232.3,2269.34 L1228.27,2270.59 L1221.57,2270.66 L1221.46,2270.66 L1219.55,2272.25 L1217.13,2271.95 L1215.45,2271.74 L1215.3,2271.82 L1210.13,2274.72 L1204.82,2274.19 L1203.04,2274.31 L1200.31,2274.48 L1197.25,2275.56 L1193.29,2276.95 L1192.92,2280.36 L1192.88,2280.35 L1192.54,2280.46 L1192.43,2280.47 L1191.2,2280.46 L1190.52,2280.58 L1190.19,2280.69 L1190.08,2280.69 L1189.85,2280.69 L1189.51,2280.8 L1189.29,2280.8 L1189.07,2280.8 L1188.62,2280.91 L1188.51,2280.91 L1188.39,2280.91 L1187.94,2281.03 L1187.72,2281.03 L1187.5,2281.03 L1187.05,2281.14 L1186.93,2281.14 L1186.71,2281.14 L1186.15,2281.14 L1185.92,2281.14 L1185.48,2281.25 L1185.36,2281.25 L1185.14,2281.25 L1184.92,2281.36 L1184.24,2281.47 L1184.13,2281.53 L1184.07,2281.76 L1183.96,2281.87 L1183.91,2281.98 L1183.79,2281.92 L1183.68,2281.87 L1183.62,2282.09 L1183.51,2282.2 L1183.4,2282.43 L1183.34,2282.54 L1183.12,2282.6 L1182.9,2282.6 L1182.78,2282.6 L1182.56,2282.71 L1182.22,2282.82 L1182.11,2282.82 L1181.89,2282.82 L1181.66,2282.93 L1181.21,2283.05 L1180.88,2283.16 L1180.2,2283.27 L1179.98,2283.38 L1179.31,2283.49 L1179.08,2283.61 L1178.97,2283.61 L1178.86,2283.61 L1178.41,2283.72 L1178.18,2283.83 L1177.96,2283.94 L1177.62,2284.06 L1177.4,2284.05 L1177.29,2284.06 L1176.84,2284.17 L1176.61,2284.17 L1176.5,2284.17 L1176.16,2284.28 L1175.83,2284.28 L1175.72,2284.28 L1175.38,2284.39 L1174.82,2284.5 L1174.37,2284.62 L1174.26,2284.62 L1174.03,2284.62 L1173.7,2284.73 L1173.47,2284.73 L1173.36,2284.73 L1173.02,2284.84 L1172.69,2284.84 L1172.57,2284.84 L1172.24,2284.95 L1171.34,2285.06 L1171.12,2285.06 L1170.89,2285.06 L1170.55,2285.18 L1170.33,2285.18 L1170.22,2285.18 L1169.88,2285.29 L1169.77,2285.4 L1169.55,2285.4 L1169.21,2285.4 L1168.87,2285.51 L1168.76,2285.51 L1168.42,2285.51 L1167.53,2285.63 L1167.19,2285.63 L1167.08,2285.63 L1166.74,2285.74 L1165.96,2285.85 L1165.28,2285.96 L1164.61,2286.07 L1164.16,2286.19 L1164.05,2286.19 L1163.82,2286.19 L1163.37,2286.3 L1162.81,2286.41 L1162.48,2286.41 L1162.36,2286.41 L1162.14,2286.52 L1161.8,2286.64 L1161.69,2286.64 L1161.58,2286.64 L1161.13,2286.75 L1160.68,2286.86 L1160.46,2286.97 L1159.78,2287.08 L1159.56,2287.2 L1159,2287.31 L1158.77,2287.42 L1158.55,2287.42 L1158.44,2287.42 L1157.61,2287.77 L1156.32,2288.13 L1155.3,2288.34 L1154.57,2288.81 L1153.84,2288.97 L1153.12,2289.15 L1152.58,2289.21 L1152.07,2289.58 L1150.89,2289.89 L1150.49,2289.94 L1149.91,2290.27 L1149.14,2290.37 L1148.29,2290.57 L1146.94,2290.77 L1145.83,2290.89 L1144.83,2291.09 L1144.11,2291.25 L1143.4,2291.35 L1142.96,2291.46 L1142.73,2291.46 L1142.39,2291.46 L1141.95,2291.46 L1141.72,2291.46 L1141.16,2291.46 L1141.05,2291.46 L1140.71,2291.57 L1140.6,2291.68 L1140.04,2291.8 L1138.92,2291.91 L1138.8,2291.91 L1138.47,2291.91 L1137.68,2292.02 L1136.9,2292.13 L1136.56,2292.25 L1136.45,2292.25 L1136.22,2292.25 L1135.89,2292.36 L1135.21,2292.47 L1134.65,2292.58 L1134.2,2292.69 L1134.09,2292.69 L1133.87,2292.69 L1133.53,2292.81 L1133.31,2292.81 L1133.2,2292.81 L1132.86,2292.92 L1132.63,2293.03 L1132.52,2293.03 L1132.19,2293.03 L1131.85,2293.14 L1131.74,2293.14 L1131.51,2293.14 L1131.18,2293.25 L1130.95,2293.25 L1130.84,2293.25 L1130.39,2293.37 L1129.94,2293.48 L1129.83,2293.59 L1129.49,2293.7 L1129.38,2293.7 L1129.27,2293.7 L1128.93,2293.82 L1128.75,2293.9 L1128.71,2293.93 L1128.6,2293.93 L1128.37,2293.93 L1128.15,2294.04 L1127.92,2294.15 L1127.81,2294.15 L1127.59,2294.15 L1127.14,2294.26 L1127.02,2294.26 L1126.91,2294.26 L1126.58,2294.38 L1126.35,2294.49 L1126.24,2294.49 L1126.02,2294.49 L1125.9,2294.6 L1125.57,2294.71 L1125.12,2294.83 L1124.78,2294.94 L1124.67,2294.94 L1124.56,2294.94 L1124.22,2295.05 L1124,2295.16 L1123.88,2295.16 L1123.77,2295.16 L1123.55,2295.27 L1123.21,2295.39 L1123.1,2295.39 L1122.99,2295.39 L1122.54,2295.5 L1122.09,2295.61 L1121.86,2295.72 L1121.75,2295.84 L1121.53,2295.95 L1121.42,2295.95 L1121.3,2295.95 L1120.85,2296.06 L1120.63,2296.06 L1120.52,2296.06 L1120.18,2296.17 L1119.96,2296.28 L1119.84,2296.28 L1119.62,2296.28 L1119.28,2296.4 L1119.06,2296.4 L1118.95,2296.4 L1118.72,2296.51 L1118.05,2296.62 L1117.71,2296.73 L1117.26,2296.84 L1116.93,2296.96 L1116.7,2296.96 L1116.59,2296.96 L1116.25,2297.07 L1115.69,2297.18 L1115.36,2297.29 L1115.13,2297.29 L1114.91,2297.29 L1114.68,2297.41 L1114.35,2297.41 L1114.24,2297.41 L1114.01,2297.52 L1113.67,2297.63 L1113.56,2297.63 L1113.23,2297.63 L1112.89,2297.74 L1112.78,2297.74 L1112.55,2297.74 L1112.22,2297.85 L1111.99,2297.85 L1111.88,2297.85 L1111.65,2297.97 L1111.32,2298.08 L1111.09,2298.19 L1110.98,2298.3 L1110.65,2298.42 L1110.2,2298.53 L1109.97,2298.64 L1109.75,2298.75 L1109.64,2298.75 L1109.52,2298.75 L1109.19,2298.86 L1108.96,2298.98 L1108.85,2298.98 L1108.63,2298.98 L1108.18,2299.09 L1108.06,2299.09 L1107.95,2299.09 L1107.62,2299.2 L1107.39,2299.31 L1107.28,2299.31 L1107.05,2299.31 L1106.83,2299.43 L1106.61,2299.54 L1106.49,2299.54 L1106.38,2299.54 L1105.82,2299.65 L1105.71,2299.65 L1105.48,2299.65 L1105.26,2299.76 L1105.04,2299.87 L1104.92,2299.87 L1104.7,2299.87 L1104.47,2299.99 L1104.25,2300.1 L1104.14,2300.1 L1103.91,2300.1 L1103.46,2300.21 L1103.35,2300.21 L1103.24,2300.21 L1103.02,2300.32 L1102.68,2300.44 L1102.57,2300.43 L1102.46,2300.43 L1102.23,2300.55 L1102.01,2300.66 L1101.78,2300.66 L1101.67,2300.66 L1101.22,2300.77 L1101,2300.77 L1100.88,2300.77 L1100.66,2300.88 L1100.44,2301 L1100.21,2301 L1100.1,2301 L1099.87,2301.11 L1099.65,2301.22 L1099.43,2301.33 L1099.31,2301.33 L1099.2,2301.33 L1098.86,2301.44 L1098.64,2301.56 L1098.53,2301.56 L1098.42,2301.56 L1098.19,2301.67 L1097.86,2301.78 L1097.74,2301.78 L1097.63,2301.78 L1097.41,2301.89 L1097.07,2302.01 L1096.96,2302.01 L1096.85,2302.01 L1096.62,2302.12 L1096.4,2302.23 L1096.28,2302.34 L1096.17,2302.34 L1096.06,2302.34 L1095.72,2302.45 L1095.16,2302.57 L1094.94,2302.68 L1094.71,2302.79 L1094.6,2302.79 L1094.38,2302.79 L1094.15,2302.9 L1093.93,2303.02 L1093.82,2303.02 L1093.7,2303.02 L1093.37,2303.13 L1092.69,2303.24 L1092.31,2303.3 L1091.91,2303.35 L1091.57,2303.46 L1091.46,2303.46 L1091.24,2303.46 L1090.79,2303.58 L1090.68,2303.58 L1090.56,2303.58 L1090.34,2303.69 L1090,2303.8 L1089.89,2303.8 L1089.55,2303.8 L1089.33,2303.91 L1089.1,2303.91 L1088.99,2303.91 L1088.77,2304.03 L1088.66,2304.14 L1088.43,2304.25 L1087.98,2304.36 L1087.65,2304.47 L1087.53,2304.47 L1087.31,2304.47 L1087.08,2304.59 L1086.52,2304.7 L1086.3,2304.81 L1085.74,2304.92 L1085.29,2305.03 L1085.18,2305.03 L1084.95,2305.03 L1084.77,2305.13 L1084.73,2305.15 L1084.62,2305.26 L1084.28,2305.26 L1084.17,2305.26 L1083.72,2305.37 L1083.61,2305.48 L1083.38,2305.6 L1083.16,2305.71 L1082.93,2305.82 L1082.37,2305.93 L1082.15,2306.04 L1081.92,2306.04 L1081.81,2306.04 L1081.59,2306.16 L1081.03,2306.27 L1080.91,2306.38 L1080.58,2306.49 L1080.35,2306.49 L1080.24,2306.49 L1080.13,2306.61 L1079.9,2306.72 L1079.79,2306.83 L1079.23,2306.94 L1078.9,2307.05 L1078.56,2307.17 L1078.33,2307.28 L1078.11,2307.39 L1078,2307.39 L1077.89,2307.39 L1077.55,2307.5 L1076.99,2307.62 L1076.76,2307.73 L1076.2,2307.84 L1075.75,2307.95 L1075.64,2307.95 L1075.53,2307.95 L1075.42,2308.06 L1075.19,2308.18 L1075.08,2308.29 L1074.97,2308.4 L1074.74,2308.4 L1074.63,2308.4 L1074.41,2308.51 L1074.07,2308.62 L1073.96,2308.63 L1073.85,2308.62 L1073.73,2308.74 L1073.4,2308.85 L1072.95,2308.96 L1072.72,2309.07 L1072.16,2309.19 L1071.94,2309.3 L1071.38,2309.41 L1071.15,2309.52 L1070.61,2309.72 L1070.32,2309.79 L1070.09,2309.83 L1069.9,2309.85 L1069.5,2309.92 L1069.37,2309.96 L1069.25,2309.97 L1069.15,2310 L1069.02,2310.08 L1068.8,2310.2 L1068.69,2310.31 L1068.4,2310.41 L1067.9,2310.54 L1067.61,2310.58 L1067.39,2310.64 L1067.25,2310.63 L1067,2310.64 L1066.88,2310.65 L1066.76,2310.68 L1066.62,2310.73 L1066.5,2310.81 L1066.39,2310.92 L1066.34,2310.98 L1066.22,2311.03 L1066.14,2311.05 L1065.98,2311.05 L1065.84,2311.06 L1065.65,2311.1 L1065.31,2311.19 L1065.17,2311.22 L1065,2311.28 L1064.76,2311.47 L1064.72,2311.5 L1064.65,2311.53 L1064.54,2311.55 L1064.42,2311.63 L1064.3,2311.72 L1064.18,2311.8 L1063.99,2311.9 L1063.86,2311.96 L1063.65,2312.02 L1063.45,2312.06 L1063.38,2312.09 L1063.24,2312.14 L1063.07,2312.2 L1062.69,2312.32 L1062.57,2312.36 L1062.39,2312.41 L1062.23,2312.46 L1061.86,2312.57 L1061.68,2312.65 L1061.48,2312.74 L1061.35,2312.81 L1061.03,2312.9 L1060.77,2313.02 L1060.38,2313.19 L1059.95,2313.36 L1059.7,2313.47 L1059.44,2313.59 L1059.01,2313.73 L1058.51,2313.87 L1058.05,2313.99 L1057.78,2314.07 L1057.46,2314.21 L1057.18,2314.33 L1056.88,2314.45 L1056.48,2314.56 L1056.05,2314.65 L1055.84,2314.71 L1055.56,2314.75 L1055.46,2314.77 L1055.25,2314.8 L1055,2314.86 L1054.82,2314.91 L1054.57,2315.02 L1054.41,2315.09 L1054.2,2315.15 L1054.1,2315.2 L1053.72,2315.25 L1053.61,2315.28 L1053.38,2315.39 L1053.13,2315.49 L1052.69,2315.62 L1052.26,2315.73 L1052.03,2315.84 L1051.57,2316.01 L1051.44,2316.06 L1051.29,2316.12 L1051.14,2316.14 L1050.95,2316.16 L1050.83,2316.17 L1050.66,2316.18 L1050.49,2316.2 L1050.03,2316.37 L1049.84,2316.41 L1049.68,2316.46 L1049.53,2316.54 L1049.1,2316.68 L1048.91,2316.76 L1048.72,2316.83 L1048.34,2316.94 L1048.27,2316.97 L1048.09,2317.09 L1047.83,2317.23 L1047.55,2317.27 L1047.21,2317.41 L1047.1,2317.47 L1046.9,2317.59 L1046.82,2317.82 L1046.77,2317.87 L1046.49,2318 L1045.99,2318.17 L1045.69,2318.3 L1045.5,2318.44 L1045.41,2318.57 L1045.39,2318.97 L1045.26,2318.98 L1045.18,2318.97 L1045.06,2318.98 L1044.99,2319.01 L1044.88,2319.04 L1044.86,2318.99 L1044.83,2319 L1044.81,2319.08 L1044.63,2319.14 L1044.55,2318.72 L1044.4,2318.75 L1044.34,2318.84 L1044.28,2318.85 L1044.17,2318.84 L1044.01,2318.9 L1044.02,2318.95 L1043.86,2319.04 L1043.75,2319.1 L1043.71,2319.14 L1043.73,2319.32 L1043.75,2319.42 L1043.76,2319.48 L1043.68,2319.5 L1043.66,2319.41 L1043.67,2319.37 L1043.68,2319.35 L1043.68,2319.33 L1043.66,2319.3 L1043.64,2319.29 L1042.87,2319.56 L1042.78,2319.64 L1043.53,2320.25 L1043.53,2320.26 L1043.4,2320.16 L1043.08,2320.58 L1043.19,2320.68 L1043.18,2320.69 L1042.36,2320.02 L1042.22,2320.01 L1042.06,2320.06 L1042.09,2320.17 L1042.18,2320.15 L1042.18,2320.17 L1041.95,2320.23 L1041.95,2320.21 L1042.07,2320.17 L1042.04,2320.06 L1041.68,2320.16 L1041.46,2320.23 L1041.39,2320.28 L1041.37,2320.32 L1041.39,2320.35 L1041.57,2320.51 L1042.38,2321.16 L1042.2,2321.38 L1041.13,2320.52 L1040.91,2320.79 L1041.63,2321.51 L1042.07,2321.97 L1042.43,2322.34 L1042.72,2322.64 L1042.8,2322.72 L1043.09,2323.01 L1043.18,2323.1 L1043.13,2323.16 L1042.72,2323.21 L1041.8,2323.24 L1041.13,2323.27 L1040.9,2323.29 L1039.93,2323.31 L1039.16,2323.19 L1038.49,2323.13 L1038.11,2323.17 L1037.63,2323.28 L1037.05,2323.4 L1036.6,2323.51 L1036.37,2323.57 L1036.08,2323.63 L1035.89,2323.61 L1035.76,2323.61 L1035.57,2323.63 L1035.28,2323.64 L1034.87,2323.65 L1034.49,2323.65 L1034.1,2323.62 L1033.89,2323.56 L1033.76,2323.57 L1033.47,2323.6 L1033.32,2323.65 L1033.21,2323.66 L1033.16,2323.73 L1033.08,2323.84 L1033.07,2323.86 L1032.93,2324.08 L1031.23,2324.68 L1029.41,2325.42 L1029.08,2325.52 L1028.59,2325.6 L1027.4,2325.81 L1026.68,2326.02 L1026.02,2326.25 L1021.7,2327.38 L1019.21,2328.11 L1018.47,2328.39 L1017.7,2328.74 L1017.4,2328.85 L1016.8,2329.04 L1016.02,2329.3 L1015.7,2329.44 L1014.55,2329.89 L1013.85,2330.13 L1012.67,2330.43 L1011.25,2330.91 L1010.31,2331.4 L1008.83,2331.89 L1008.05,2332.18 L1007.29,2332.48 L1006.65,2332.65 L1006.29,2332.78 L1005.82,2332.96 L1005.81,2332.96 L1005.8,2332.96 L1005.81,2332.72 L1006.2,2308.53 L964.983,2308.55 L964.983,2308.55 L956.137,2308.56 L955.559,2307.63 L955.301,2307.22 L955.3,2306.49 L955.286,2300.02 L952.146,2295.75 L949.033,2291.42 L947.672,2286.33 L942.944,2280.94 L939.483,2280.45 L935.953,2279.02 L932.571,2273.95 L929.638,2270.98 L929.674,2269.61 L927.126,2263.49 L926.329,2257.69 L922.827,2254.51 L922.68,2249.55 L921.923,2246.87 L922.664,2245.61 L922.986,2242.54 L923.275,2240.06 L921.489,2236.75 L900.684,2236.57 L873.557,2236.33 L872.943,2236.32 L872.477,2234.81 L872.366,2234.45 L871.803,2233.87 L870.725,2232.75 L870.69,2232.31 L870.508,2230.03 L868.924,2226.86 L866.328,2225.35 L864.303,2221.36 L862.169,2219.74 L857.61,2215.68 L856.888,2214.33 L844.48,2207.09 L827.02,2203.15 L824.1,2192.97 L812.26,2188.69 L810.334,2188.39 L809.848,2188.32 L809.667,2188.29 L809.608,2187.67 L808.062,2171.55 L800.603,2168.48 L799.779,2167.42 L799.165,2166.32 L797.136,2162.69 L796.407,2156.62 L795.091,2152.09 L794.229,2150.98 L796.387,2147.4 L796.789,2146.99 L799.253,2147.65 L800.455,2147.97 L802.056,2148.4 L802.459,2148.44 L803.265,2148.53 L803.265,2148.53 L805.686,2148.3 L805.686,2148.3 L807.865,2147.94 L808.943,2147.79 L810.287,2147.59 L811.799,2147.37 L812.708,2147.24 L815.493,2146.77 L815.493,2146.77 L817.673,2146.05 L819.854,2145.46 L821.552,2144.37 L823.493,2143.17 L825.433,2142.21 L827.011,2141.13 L828.588,2140.17 L829.021,2139.9 L830.529,2138.97 L832.469,2137.89 L834.409,2136.93 L836.07,2136.11 L836.348,2135.97 L838.048,2134.65 L839.626,2133.45 L841.325,2132.12 L842.419,2130.68 L842.785,2130.19 L843.009,2129.91 L844.123,2128.51 L845.22,2126.57 L846.437,2124.89 L847.023,2123.73 L847.535,2122.71 L848.267,2121.27 L849.727,2119.34 L850.578,2118.35 L851.186,2117.65 L851.855,2116.87 L852.524,2116.08 L854.223,2114.76 L855.922,2113.44 L857.501,2111.87 L859.199,2110.91 L860.898,2109.59 L862.598,2108.02 L864.176,2106.7 L865.634,2105.01 L867.212,2103.81 L868.272,2102.58 L868.67,2102.12 L869.098,2101.15 L869.525,2100.19 L870.624,2097.9 L871.843,2095.6 L872.698,2093.67 L873.364,2091.89 L873.554,2091.38 L874.047,2089.32 L874.785,2086.42 L875.451,2084.64 L875.641,2084.13 L875.711,2083.59 L875.778,2083.07 L876.016,2081.23 L876.271,2078.2 L876.645,2075.54 L876.826,2073.64 L876.898,2072.88 L877.023,2072.12 L877.271,2070.59 L877.408,2066.96 L877.42,2064.06 L877.068,2061.51 L877.08,2058.85 L877.091,2056.19 L876.911,2054.31 L876.86,2053.77 L876.759,2053.08 L876.507,2051.35 L876.152,2049.53 L875.56,2046.75 L874.965,2044.57 L874.249,2042.39 L874.017,2039.97 L873.703,2038.03 L873.664,2037.79 L873.676,2035.13 L873.565,2032.71 L873.451,2031.2 L873.337,2029.68 L873.208,2028.34 L873.105,2027.26 L873.117,2024.6 L873.129,2021.94 L873.129,2021.94 L877.6,2022.45 L882.072,2022.71 L886.543,2023.21 L889.151,2023.36 L891.015,2023.47 L895.488,2023.61 L895.488,2023.61 L896.97,2023.82 L899.959,2024.23 L899.959,2024.23 L904.431,2024.37 L906.667,2024.51 L908.903,2024.64 L913.375,2025.14 L917.847,2025.4 L922.318,2025.9 L926.79,2026.16 L931.262,2026.42 L935.733,2026.92 L940.205,2027.18 L944.677,2027.44 L949.148,2027.95 L953.62,2028.21 L958.091,2028.71 L962.563,2028.97 L967.035,2029.11 L971.505,2029.73 L973.077,2029.61 L974.401,2031.19 L972.943,2033.12 L971.245,2034.44 L972.205,2036.38 L974.499,2037.24 L977.519,2037.61 L980.179,2037.62 L982.597,2037.51 L984.891,2038.49 L985.972,2040.31 L986.568,2042.48 L987.891,2044.18 L989.821,2045.28 L992.115,2046.13 L994.772,2046.75 L997.065,2047.97 L998.632,2049.3 L999.713,2051 L1000.67,2052.94 L1001.87,2055.12 L1002.83,2057.06 L1003.55,2058.63 L1005.24,2060.33 L1006.81,2061.43 L1009.22,2062.28 L1011.52,2063.14 L1013.81,2063.99 L1016.47,2064.61 L1018.06,2064.99 L1019.01,2065.22 L1021.3,2066.08 L1023.59,2067.29 L1024.63,2067.72 L1025.04,2067.42 L1026.5,2065.85 L1027.96,2064.16 L1029.29,2062.6 L1030.99,2061.27 L1032.32,2059.95 L1033.78,2058.26 L1035.48,2056.69 L1036.81,2055.37 L1038.51,2053.8 L1039.85,2052.11 L1041.3,2050.79 L1042.88,2049.58 L1044.33,2048.14 L1046.03,2046.57 L1047.37,2045.25 L1049.31,2043.68 L1051,2042.48 L1052.34,2041.03 L1054.03,2039.47 L1055.73,2038.5 L1057.43,2036.94 L1059,2035.85 L1060.7,2034.65 L1062.4,2033.33 L1063.97,2032 L1065.67,2031.04 L1067.24,2029.72 L1068.94,2028.39 L1071.24,2027.19 L1072.82,2025.86 L1074.51,2024.54 L1076.21,2023.58 L1078.15,2022.62 L1080.09,2021.29 L1081.66,2020.33 L1083.6,2019.13 L1085.53,2018.41 L1087.35,2017.81 L1089.65,2016.85 L1091.83,2016.13 L1094,2015.54 L1096.18,2014.94 L1098.96,2014.59 L1101.86,2014.96 L1104.52,2015.33 L1107.18,2016.18 L1109.47,2016.8 L1112.13,2017.77 L1114.42,2018.63 L1116.71,2019.48 L1119.37,2020.09 L1122.27,2020.47 L1125.05,2020.72 L1127.71,2020.85 L1129.88,2020.49 L1132.06,2019.77 L1134.24,2018.93 L1136.78,2018.33 L1138.59,2017.61 L1140.53,2016.65 L1142.47,2015.69 L1144.41,2014.49 L1146.1,2013.16 L1147.43,2012.44 L1149.01,2011.12 L1150.83,2009.19 L1151.92,2007.86 L1153.38,2005.69 L1154.47,2003.64 L1155.32,2001.71 L1156.78,1999.41 L1157.63,1997.48 L1158.48,1995.43 L1159.7,1993.25 L1161.03,1991.93 L1162.73,1990.24 L1164.42,1989.04 L1166.36,1988.08 L1168.54,1987.36 L1170.71,1986.76 L1175.84,1984.96 L1183.43,1988.15 L1183.43,1988.15 L1183.54,1988.53 L1183.92,1989.86 L1183.62,1991.55 L1183.28,1993.34 L1183.01,1994.76 L1183.46,1996.04 L1184.1,1997.86 L1184.1,1997.86 L1183.25,1998.65 L1180,2001.65 L1179.32,2003.05 L1178.78,2004.15 L1179.08,2006.46 L1181.7,2011.05 L1181.77,2011.17 L1181.97,2014.67"/>
<path vector-effect="none" fill-rule="evenodd" d="M1028.78,1348.81 L1036.37,1349.08 L1043.84,1349.12 L1051.18,1349.15 L1058.65,1349.42 L1066.24,1349.7 L1073.82,1349.97 L1081.41,1349.76 L1088.88,1350.03 L1096.46,1350.31 L1103.93,1350.7 L1111.52,1350.61 L1118.86,1350.64 L1126.33,1350.91 L1133.92,1350.94 L1141.5,1351.21 L1148.97,1351.6 L1156.55,1351.63 L1164.14,1351.54 L1171.73,1351.93 L1179.19,1352.19 L1186.42,1352.46 L1192.61,1352.55 L1192.61,1352.55 L1193.79,1358.13 L1194.39,1359.1 L1197.02,1363.32 L1197.73,1373.01 L1197.73,1373.01 L1197.73,1373.77 L1197.74,1420.77 L1197.74,1421.21 L1197.81,1426.14 L1197.94,1435.25 L1197.84,1441.75 L1198.05,1460.83 L1198.05,1461.59 L1198.15,1481.11 L1198.14,1495.54 L1198.14,1511.88 L1198.21,1512.99 L1198.45,1516.92 L1198.17,1522.62 L1197.25,1541.67 L1196.79,1551.1 L1197.37,1554.91 L1196.82,1557.43 L1196.56,1558.6 L1195.82,1577.4 L1195.74,1579.28 L1195.65,1581.49 L1195.71,1585.59 L1195.73,1587.19 L1196.25,1588.85 L1197.79,1593.8 L1198.04,1596.17 L1198.18,1597.6 L1197.32,1614.39 L1196.42,1631.98 L1196.03,1639.63 L1195.66,1646.89 L1195.9,1659.39 L1195.9,1659.39 L1196.5,1661.5 L1198.46,1668.41 L1200.3,1672.17 L1204.11,1679.93 L1203.89,1684.35 L1203.85,1685.26 L1203.54,1691.58 L1203.12,1700.13 L1203.18,1701.03 L1203.68,1708.54 L1205.06,1714.74 L1208.03,1720.56 L1210.1,1721.29 L1211.73,1721.87 L1212.32,1723.68 L1215,1727.49 L1215,1727.49 L1215.15,1728.12 L1215.69,1730.49 L1214.94,1731.8 L1214.89,1731.89 L1214.88,1731.89 L1212.93,1731.9 L1211.28,1731.91 L1205.18,1731.95 L1202.97,1732.84 L1201.21,1735.6 L1201.06,1735.83 L1197.73,1765.32 L1197.47,1772.66 L1197.47,1772.66 L1197.27,1778.6 L1197.17,1781.56 L1197.15,1782.02 L1197.65,1828.55 L1197.54,1828.84 L1197.2,1829.73 L1197.41,1833.5 L1198.17,1847.16 L1198.12,1877.37 L1198.1,1887.58 L1198.12,1888.49 L1199.47,1943.48 L1199.52,1945.61 L1199.62,1949.54 L1199.62,1949.55 L1191.66,1949.09 L1184.22,1948.66 L1178.51,1949.94 L1177.46,1949.68 L1176.41,1949.43 L1175.41,1948.02 L1175.41,1948.02 L1163,1948.17 L1163,1948.17 L1163.55,1959.18 L1163.74,1959.49 L1170.01,1970.12 L1171.24,1977.71 L1171.63,1980.62 L1172.83,1982.72 L1172.83,1982.72 L1173.78,1983.47 L1175.52,1984.83 L1175.84,1984.96 L1175.84,1984.96 L1170.71,1986.76 L1168.54,1987.36 L1166.36,1988.08 L1164.42,1989.04 L1162.73,1990.24 L1161.03,1991.93 L1159.7,1993.25 L1158.48,1995.43 L1157.63,1997.48 L1156.78,1999.41 L1155.32,2001.71 L1154.47,2003.64 L1153.38,2005.69 L1151.92,2007.86 L1150.83,2009.19 L1149.01,2011.12 L1147.43,2012.44 L1146.1,2013.16 L1144.41,2014.49 L1142.47,2015.69 L1140.53,2016.65 L1138.59,2017.61 L1136.78,2018.33 L1134.24,2018.93 L1132.06,2019.77 L1129.88,2020.49 L1127.71,2020.85 L1125.05,2020.72 L1122.27,2020.47 L1119.37,2020.09 L1116.71,2019.48 L1114.42,2018.63 L1112.13,2017.77 L1109.47,2016.8 L1107.18,2016.18 L1104.52,2015.33 L1101.86,2014.96 L1098.96,2014.59 L1096.18,2014.94 L1094,2015.54 L1091.83,2016.13 L1089.65,2016.85 L1087.35,2017.81 L1085.53,2018.41 L1083.6,2019.13 L1081.66,2020.33 L1080.09,2021.29 L1078.15,2022.62 L1076.21,2023.58 L1074.51,2024.54 L1072.82,2025.86 L1071.24,2027.19 L1068.94,2028.39 L1067.24,2029.72 L1065.67,2031.04 L1063.97,2032 L1062.4,2033.33 L1060.7,2034.65 L1059,2035.85 L1057.43,2036.94 L1055.73,2038.5 L1054.03,2039.47 L1052.34,2041.03 L1051,2042.48 L1049.31,2043.68 L1047.37,2045.25 L1046.03,2046.57 L1044.33,2048.14 L1042.88,2049.58 L1041.3,2050.79 L1039.85,2052.11 L1038.51,2053.8 L1036.81,2055.37 L1035.48,2056.69 L1033.78,2058.26 L1032.32,2059.95 L1030.99,2061.27 L1029.29,2062.6 L1027.96,2064.16 L1026.5,2065.85 L1025.04,2067.42 L1024.63,2067.72 L1023.59,2067.29 L1021.3,2066.08 L1019.01,2065.22 L1018.06,2064.99 L1016.47,2064.61 L1013.81,2063.99 L1011.52,2063.14 L1009.22,2062.28 L1006.81,2061.43 L1005.24,2060.33 L1003.55,2058.63 L1002.83,2057.06 L1001.87,2055.12 L1000.67,2052.94 L999.713,2051 L998.632,2049.3 L997.065,2047.97 L994.772,2046.75 L992.115,2046.13 L989.821,2045.28 L987.891,2044.18 L986.568,2042.48 L985.972,2040.31 L984.891,2038.49 L982.597,2037.51 L980.179,2037.62 L977.519,2037.61 L974.499,2037.24 L972.205,2036.38 L971.245,2034.44 L972.943,2033.12 L974.401,2031.19 L973.077,2029.61 L971.505,2029.73 L967.035,2029.11 L962.563,2028.97 L958.091,2028.71 L953.62,2028.21 L949.148,2027.95 L944.677,2027.44 L940.205,2027.18 L935.733,2026.92 L931.262,2026.42 L926.79,2026.16 L922.318,2025.9 L917.847,2025.4 L913.375,2025.14 L908.903,2024.64 L906.667,2024.51 L904.431,2024.37 L899.959,2024.23 L899.959,2024.23 L896.97,2023.82 L895.488,2023.61 L895.488,2023.61 L891.015,2023.47 L889.151,2023.36 L886.543,2023.21 L882.072,2022.71 L877.6,2022.45 L873.129,2021.94 L873.129,2021.94 L873.117,2024.6 L873.105,2027.26 L873.208,2028.34 L873.337,2029.68 L873.451,2031.2 L873.565,2032.71 L873.676,2035.13 L873.664,2037.79 L873.703,2038.03 L874.017,2039.97 L874.249,2042.39 L874.965,2044.57 L875.56,2046.75 L876.152,2049.53 L876.507,2051.35 L876.759,2053.08 L876.86,2053.77 L876.911,2054.31 L877.091,2056.19 L877.08,2058.85 L877.068,2061.51 L877.42,2064.06 L877.408,2066.96 L877.271,2070.59 L877.023,2072.12 L876.898,2072.88 L876.826,2073.64 L876.645,2075.54 L876.271,2078.2 L876.016,2081.23 L875.778,2083.07 L875.711,2083.59 L875.641,2084.13 L875.451,2084.64 L874.785,2086.42 L874.047,2089.32 L873.554,2091.38 L873.364,2091.89 L872.698,2093.67 L871.843,2095.6 L870.624,2097.9 L869.525,2100.19 L869.098,2101.15 L868.67,2102.12 L868.272,2102.58 L867.212,2103.81 L865.634,2105.01 L864.176,2106.7 L862.598,2108.02 L860.898,2109.59 L859.199,2110.91 L857.501,2111.87 L855.922,2113.44 L854.223,2114.76 L852.524,2116.08 L851.855,2116.87 L851.186,2117.65 L850.578,2118.35 L849.727,2119.34 L848.267,2121.27 L847.535,2122.71 L847.023,2123.73 L846.437,2124.89 L845.22,2126.57 L844.123,2128.51 L843.009,2129.91 L842.785,2130.19 L842.419,2130.68 L841.325,2132.12 L839.626,2133.45 L838.048,2134.65 L836.348,2135.97 L836.07,2136.11 L834.409,2136.93 L832.469,2137.89 L830.529,2138.97 L829.021,2139.9 L828.588,2140.17 L827.011,2141.13 L825.433,2142.21 L823.493,2143.17 L821.552,2144.37 L819.854,2145.46 L817.673,2146.05 L815.493,2146.77 L815.493,2146.77 L812.708,2147.24 L811.799,2147.37 L810.287,2147.59 L808.943,2147.79 L807.865,2147.94 L805.686,2148.3 L805.686,2148.3 L803.265,2148.53 L803.265,2148.53 L802.459,2148.44 L802.056,2148.4 L800.455,2147.97 L799.253,2147.65 L796.789,2146.99 L801.28,2142.4 L805.92,2139.32 L808.122,2137.86 L806.809,2127.42 L805.931,2126.77 L800.776,2123.44 L798.719,2124.58 L793.46,2125.58 L787.796,2124.55 L784.015,2123.18 L783.679,2123.06 L782.181,2120.74 L783.192,2121.01 L784.361,2121.31 L785.018,2120.29 L777.092,2113.36 L775.959,2114.11 L775.874,2115.09 L775.816,2115.76 L773.294,2116.76 L771.936,2116.41 L770.116,2115.93 L768.728,2113.72 L768.347,2110.95 L766.042,2107.54 L764.61,2105.76 L762.12,2104.29 L762.181,2100.09 L762.25,2096.58 L764.626,2093.72 L763.99,2092.39 L763.595,2090.43 L763.517,2089.29 L764.954,2085.65 L765.168,2082.23 L764.463,2077.98 L765.735,2074.19 L766.784,2071.35 L764.564,2067.95 L764.059,2067.18 L764.216,2066.52 L764.672,2064.59 L765.677,2062.56 L767.927,2059.95 L765.808,2058.25 L765.006,2057.61 L762.961,2056.52 L760.542,2055.23 L757.245,2055.78 L755.199,2052.5 L752.415,2054.2 L749.291,2055.31 L746.699,2051.4 L742.512,2049.62 L739.141,2048.75 L737.111,2048.23 L733.903,2043.4 L734.299,2043.01 L735.643,2043.57 L736.122,2043.06 L732.893,2040 L732.667,2039.79 L731.137,2039.17 L731.519,2038.42 L731.607,2038.25 L731.974,2037.54 L732.761,2035.64 L733.054,2034.94 L733.055,2033.71 L731.912,2031.57 L731.547,2030.89 L732.209,2031.2 L735.65,2032.81 L736.013,2032.48 L736.961,2031.63 L737.35,2029.85 L737.374,2029.74 L737.44,2029 L734.906,2028.25 L734.761,2028.25 L733.943,2028.22 L732.94,2027.84 L731.364,2025.95 L731.372,2025.86 L731.486,2024.54 L732.286,2023.93 L731.261,2022.2 L728.785,2022.16 L727.259,2020.77 L723.691,2017.56 L722.217,2018.16 L722.425,2020.08 L720.8,2020.8 L719.601,2021.33 L718.745,2020.85 L716.698,2019.71 L717.76,2018 L716.416,2018.21 L716.603,2007.93 L721.194,2005.58 L721.485,2004.45 L719.726,2001.78 L719.157,2000.91 L717.496,1999.76 L717.666,1998.61 L723.614,1997.32 L724.884,1997.04 L726.327,1996.26 L728.051,1994.17 L728.395,1990.86 L729.915,1987.42 L729.981,1982.51 L731.136,1980.61 L730.171,1977.85 L727.846,1976.2 L725.826,1975.3 L724.366,1975.92 L724.328,1975.94 L724.296,1975.83 L723.332,1972.61 L722.394,1973.58 L721.2,1972.54 L713.243,1970.66 L713.144,1970.64 L712.899,1970.58 L712.58,1970.82 L712.348,1970.08 L711.541,1967.49 L713.173,1964.46 L712.215,1961.51 L713.745,1960.08 L712.235,1957.72 L712.62,1956.7 L712.844,1956.1 L713.197,1956.23 L714.332,1956.65 L717.686,1954.97 L718.514,1953.61 L719.89,1951.35 L723.703,1948.9 L724.192,1948.8 L726.191,1948.41 L727.682,1948.41 L733.098,1946.49 L736.86,1947.75 L743.208,1943.67 L743.609,1942.97 L744.232,1941.88 L742.511,1940.4 L746.269,1935.56 L746.826,1934.85 L746.927,1933.26 L746.12,1931.13 L747.143,1929.48 L744.728,1919.04 L744.67,1918.79 L744.862,1918.49 L747.496,1914.27 L751.176,1908.39 L752.476,1905.09 L751.678,1903.23 L751.796,1902.95 L752.496,1901.26 L752.099,1899.98 L750.136,1899.13 L749.372,1899.13 L748.107,1899.14 L745.772,1896.2 L744.576,1896.55 L743.232,1896.95 L743.49,1895.16 L745.015,1892.97 L745.067,1890.57 L745.459,1886.88 L746.905,1886.11 L748.199,1885.43 L749.265,1883.46 L749.755,1879.79 L749.771,1879.66 L748.98,1878.47 L749.324,1876.04 L751.77,1876.9 L752.61,1877.2 L754.185,1874.85 L754.325,1873.25 L754.416,1872.2 L753.089,1868.74 L753.985,1865.52 L756.413,1864.51 L757.31,1865.1 L759.5,1860 L760.663,1855.14 L760.803,1850.24 L762.337,1848.63 L762.936,1848 L763.273,1846.85 L762.948,1845.03 L762.79,1844.15 L763.568,1841.39 L764.035,1839.72 L763.924,1839.29 L763.588,1837.96 L764.593,1835.35 L764.753,1834.94 L764.818,1834.03 L765.216,1828.48 L765.489,1824.65 L766.742,1819.01 L768.423,1819.06 L768.914,1819.08 L769.067,1817.91 L769.421,1815.19 L771.874,1811.01 L772.203,1809.21 L772.62,1806.92 L769.665,1796.83 L769.55,1796.44 L769.521,1795.45 L769.445,1792.86 L769.177,1792.16 L768.047,1789.17 L767.517,1785.43 L767.027,1781.97 L768.102,1780.7 L766.946,1778.11 L766.721,1775.05 L766.483,1771.81 L765.277,1770.8 L762.087,1769.62 L761.37,1770.37 L760.47,1770.33 L758.234,1766.6 L755.394,1765.69 L751.879,1767.22 L749.747,1769.33 L748.038,1768.09 L745.886,1771.67 L735.725,1773.95 L732.781,1772.9 L729.001,1769.78 L726.165,1766.31 L724.633,1764.52 L723.283,1763.46 L720.384,1760.28 L719.864,1758.8 L720.887,1757.12 L719.857,1754.57 L718.361,1753.85 L718.248,1751.83 L718.138,1749.31 L718.47,1747.32 L718.221,1745.44 L715.545,1745 L714.524,1746.19 L713.116,1746.36 L712.573,1743.56 L713.343,1742.73 L714.01,1741.86 L714.379,1740.69 L712.876,1739.48 L713.971,1737.91 L716.141,1734.49 L715.766,1729.46 L715.537,1728.72 L714.76,1726.24 L712.889,1720.64 L713.333,1718.85 L715.203,1717.33 L717.33,1690.33 L717.569,1688.72 L717.048,1687.65 L715.484,1687.3 L713.567,1686.88 L713.498,1686.23 L719.578,1682.81 L721.04,1680.4 L724.203,1679.25 L727.462,1679.73 L728.306,1679.24 L730.766,1676.95 L733.303,1676.32 L738.131,1674.16 L742.74,1672.11 L743.241,1654.73 L745.596,1639.06 L747.27,1638.79 L749.046,1637.19 L749.722,1636.57 L752.828,1635.81 L755.321,1637.02 L758.148,1638.39 L761.894,1637.74 L757.278,1623.85 L756.76,1620.33 L756.198,1619.23 L753.01,1618.17 L753.065,1617.48 L756.669,1613.62 L757.683,1612.53 L758.655,1612.09 L761.247,1610.91 L762.386,1606.99 L760.407,1598.62 L756.036,1598.4 L755.686,1596.25 L755.178,1589.3 L756.199,1586.06 L756.348,1581.54 L756.062,1578.76 L756.025,1578.41 L756.157,1578.38 L758.001,1578.02 L758.88,1568.76 L757.702,1561.55 L755.948,1554.86 L760.62,1554.78 L762.006,1554.66 L763.395,1554.55 L765.81,1554.2 L768.585,1554.22 L768.585,1554.22 L771.359,1554.23 L771.359,1554.23 L774.013,1554.25 L774.619,1554.16 L776.427,1553.9 L779.203,1553.67 L779.203,1553.67 L781.614,1553.93 L783.789,1553.34 L784.109,1553.12 L785.726,1552.02 L786.942,1550.33 L787.324,1549.78 L788.28,1548.4 L789.736,1546.84 L791.194,1544.91 L792.147,1543.96 L792.528,1543.58 L794.224,1542.26 L796.399,1541.55 L797.23,1541.14 L798.334,1540.59 L800.511,1539.64 L802.204,1538.68 L804.377,1538.33 L804.377,1538.33 L807.028,1538.95 L809.678,1539.56 L812.328,1540.18 L814.74,1540.39 L815.342,1540.44 L815.342,1540.44 L817.755,1540.21 L820.169,1539.86 L822.704,1539.51 L824.877,1539.16 L827.051,1538.57 L829.828,1537.98 L831.639,1537.63 L833.813,1537.03 L834.239,1536.91 L836.35,1536.32 L837.407,1535.97 L838.887,1535.49 L840.821,1534.77 L842.997,1533.82 L844.69,1532.86 L846.264,1531.78 L847.72,1529.97 L848.256,1528.68 L848.575,1527.92 L848.942,1526.94 L849.431,1525.62 L849.742,1524.88 L850.286,1523.57 L850.287,1523.57 L852.939,1523.59 L854.983,1524.81 L856.907,1525.9 L858.099,1526.55 L858.951,1527 L860.397,1527.31 L861.842,1527.62 L864.614,1528 L866.352,1528.23 L867.507,1528.38 L867.507,1528.38 L869.918,1528.39 L869.918,1528.39 L871.478,1528.18 L872.453,1528.04 L875.228,1527.69 L876.567,1527.56 L877.641,1527.46 L878.609,1527.32 L880.055,1527.11 L881.037,1526.86 L882.349,1526.52 L884.764,1525.93 L886.935,1525.82 L886.935,1525.82 L889.109,1525.22 L891.644,1524.63 L893.818,1523.92 L895.593,1523.33 L896.355,1523.08 L898.531,1521.88 L899.031,1521.57 L899.862,1521.04 L900.828,1520.74 L901.794,1520.45 L903.968,1519.73 L906.142,1519.14 L906.142,1519.14 L907.434,1519.4 L909.153,1519.76 L909.852,1520.16 L911.077,1520.86 L913.724,1522.08 L916.012,1522.69 L917.886,1523.17 L918.421,1523.31 L921.07,1523.93 L923.72,1524.55 L926.372,1524.8 L929.263,1525.42 L932.276,1525.8 L934.926,1526.41 L936.685,1527.07 L937.574,1527.39 L939.859,1528.49 L941.543,1529.35 L943.831,1530.21 L945.875,1531.3 L947.799,1532.52 L950.449,1533.14 L953.222,1533.15 L955.997,1532.8 L958.41,1532.57 L960.945,1531.98 L962.997,1531.63 L965.531,1531.03 L967.702,1530.92 L969.876,1530.33 L972.289,1529.98 L974.824,1529.38 L977.237,1529.03 L979.409,1528.68 L981.582,1528.08 L984.117,1527.49 L986.651,1526.9 L988.702,1526.78 L991.235,1526.55 L993.823,1526.05 L994.251,1525.96 L995.82,1525.61 L998.595,1525.25 L1001.97,1524.79 L1003.18,1524.67 L1005.35,1524.08 L1007.65,1523.36 L1009.82,1522.76 L1011.51,1521.44 L1013.45,1520.48 L1015.02,1519.16 L1016.71,1517.84 L1018.65,1516.63 L1020.34,1515.55 L1022.27,1514.59 L1023.97,1513.27 L1025.66,1512.07 L1027.23,1510.75 L1028.69,1508.82 L1026.76,1507.6 L1024.72,1506.5 L1023.4,1504.8 L1023.41,1502.38 L1024.62,1500.45 L1025.48,1498.52 L1026.57,1496.83 L1027.78,1494.54 L1028.28,1492.25 L1029.73,1490.56 L1030.82,1488.63 L1031.43,1486.33 L1031.81,1483.55 L1031.82,1480.89 L1031.47,1478.47 L1031.24,1475.69 L1031.01,1473.03 L1031.5,1470.61 L1032.48,1468.08 L1033.09,1465.78 L1033.58,1463.36 L1033.71,1460.7 L1033.73,1457.68 L1033.73,1457.68 L1033.74,1454.66 L1034.11,1452 L1034.73,1449.7 L1035.22,1447.41 L1036.43,1445.36 L1037.04,1443.06 L1037.3,1440.4 L1037.43,1437.38 L1037.44,1434.72 L1037.45,1431.69 L1037.23,1428.91 L1036.63,1426.49 L1035.68,1424.55 L1033.63,1423.45 L1031.95,1422.36 L1030.39,1420.66 L1029.32,1418.72 L1028.36,1416.78 L1028.13,1414.36 L1028.62,1411.94 L1029.24,1409.65 L1029.61,1406.99 L1029.26,1404.57 L1028.31,1402.26 L1027.35,1400.08 L1027,1397.9 L1027.13,1395 L1027.15,1391.98 L1026.55,1389.44 L1025.6,1387.5 L1024.28,1385.92 L1023.33,1383.98 L1022.73,1381.44 L1022.39,1378.77 L1022.52,1375.75 L1022.52,1375.75 L1022.53,1372.73 L1022.55,1369.7 L1023.28,1367.05 L1023.29,1364.14 L1023.07,1361.36 L1022.47,1360.39 L1023.2,1357.73 L1024.29,1355.8 L1025.75,1354.12 L1026.6,1352.18 L1025.65,1349.88 L1023.48,1350.24 L1021.83,1348.57 L1021.83,1348.57 L1022.23,1348.55 L1028.78,1348.81"/>
<path vector-effect="none" fill-rule="evenodd" d="M499.924,152.791 L515.055,156.299 L518.995,156.939 L520.134,157.124 L525.137,157.937 L533.147,159.924 L535.258,160.447 L535.926,160.665 L539.266,161.755 L541.44,161.755 L541.974,161.755 L548.992,163.362 L555.704,164.969 L581.386,170.203 L581.864,170.3 L588.707,171.681 L601.301,174.221 L612.428,176.633 L614.074,177.072 L615.549,177.466 L621.845,179.146 L630.567,180.38 L653.309,185.581 L659.109,186.815 L664.634,187.99 L674.453,189.901 L675.546,190.184 L677.84,190.779 L680.663,191.51 L683.178,192.04 L699.044,195.381 L715.033,198.746 L715.295,198.752 L715.952,198.767 L715.954,198.767 L715.623,199.866 L715.259,201.075 L710.327,208.675 L711.927,210.383 L714.096,210.389 L716.434,210.395 L716.435,210.396 L716.525,210.525 L717.136,211.398 L717.326,214.406 L714.78,224.941 L714.747,225.075 L714.687,225.315 L712.154,232.753 L712.156,232.752 L725.119,227.748 L725.236,227.703 L725.237,227.703 L728.042,226.902 L731.42,225.275 L736.962,222.605 L745.88,219.022 L752.895,216.203 L754.153,216.253 L755.502,216.307 L759.411,214.108 L781.961,204.41 L785.568,204.311 L789.478,204.446 L791.476,204.514 L797.033,204.45 L807.608,204.329 L817.926,205.239 L825.841,204.745 L829.613,204.808 L842.212,205.017 L844.675,205.058 L850.587,205.263 L850.585,205.532 L850.584,205.663 L850.585,205.663 L857.657,205.416 L864.51,205.176 L867.313,206.08 L882.542,205.591 L884.221,205.247 L885.947,204.892 L885.983,204.912 L887.049,205.497 L891.572,205.587 L892.059,205.597 L892.061,205.597 L890.622,211.598 L889.947,214.411 L886.634,224.223 L886.53,226.169 L886.436,227.928 L883.774,235.069 L882.519,238.437 L882.618,241.543 L884.395,246.557 L885.919,250.856 L886.465,252.226 L886.918,253.363 L886.918,253.363 L885.973,254.839 L879.998,264.169 L878.954,267.823 L878.396,269.777 L875.87,283.905 L874.977,288.9 L873.414,291.422 L872.373,293.102 L872.372,293.103 L870.569,294.467 L865.355,298.411 L858.933,306.004 L851.223,315.119 L849.377,317.239 L846.515,320.526 L844.924,323.872 L843.707,326.43 L842.804,332.356 L841.493,340.949 L842.449,346.632 L843.196,351.067 L845.161,358.945 L845.194,359.078 L846.092,372.295 L845.787,381.906 L845.183,387.512 L842.777,396.324 L840.668,401.519 L839.566,404.234 L836.757,413.243 L835.056,416.145 L834.861,418.445 L834.454,423.256 L834.454,423.258 L834.853,423.257 L834.854,423.257 L834.777,426.408 L834.752,427.459 L832.742,446.584 L831.48,457.214 L831.137,460.102 L831.538,464.408 L831.255,467.77 L830.932,471.617 L834.537,474.622 L835.89,475.345 L837.343,476.122 L838.884,477.665 L840.846,479.631 L853.319,488.761 L854.668,489.748 L859.673,493.485 L873.992,504.173 L876.877,506.527 L877.797,507.277 L887.109,513.789 L888.911,515.14 L898.725,522.501 L926.357,543.136 L926.973,543.65 L926.973,543.65 L926.33,545.545 L926.114,546.183 L926.018,546.44 L925.261,548.477 L924.934,549.701 L924.647,550.773 L923.435,553.06 L922.936,553.693 L922.106,554.746 L920.899,556.352 L920.656,556.675 L920.494,556.864 L919.207,558.36 L917.761,559.68 L917.039,560.038 L915.837,560.634 L914.787,560.88 L913.317,561.224 L913.316,561.224 L910.56,561.207 L910.56,561.207 L907.688,560.583 L904.935,559.961 L901.941,559.58 L899.548,558.96 L896.555,558.579 L894.283,557.715 L891.527,557.697 L891.526,557.697 L891.288,557.786 L889.604,558.412 L888.155,560.097 L887.966,560.606 L887.301,562.391 L886.76,563.695 L886.449,564.442 L885.481,565.726 L884.998,566.366 L883.073,567.564 L883.073,567.564 L880.679,567.065 L879.01,565.604 L877.581,564.262 L876.49,562.84 L876.274,562.559 L873.643,561.575 L871.244,561.921 L871.244,561.921 L868.251,561.3 L866.453,561.406 L866.453,561.406 L865.024,559.946 L862.625,560.291 L857.8,564.859 L855.815,565.873 L853.831,566.888 L851.072,567.114 L850.243,567.938 L849.745,568.433 L847.084,572.048 L846.535,572.32 L845.159,573.002 L845.159,573.002 L843.448,572.645 L842.765,572.502 L840.512,568.854 L840.289,567.876 L839.93,566.311 L838.865,564.37 L833.493,561.067 L831.098,560.806 L831.098,560.806 L830.01,562.131 L827.246,563.079 L823.424,561.115 L823.105,560.87 L821.517,559.651 L821.517,559.651 L817.544,562.163 L813.936,563.832 L812.244,565.759 L814.858,569.166 L814.475,572.426 L816.489,575.95 L815.274,578.242 L814.656,580.899 L814.412,581.553 L813.801,583.193 L812.588,585.24 L812.365,585.523 L811.257,586.925 L810.045,588.851 L808.595,590.535 L807.502,592.462 L806.535,593.585 L806.052,594.146 L804.961,595.833 L804.358,596.473 L803.149,597.758 L802.06,599.079 L800.969,600.766 L800.001,602.051 L799.517,602.694 L799.327,603.149 L798.663,604.744 L797.955,606.08 L797.448,607.036 L796.355,608.962 L795.822,610.243 L795.502,611.012 L794.524,613.667 L793.668,615.96 L793.048,618.861 L792.43,621.519 L792.316,622.317 L792.051,624.177 L792.032,626.961 L792.01,629.988 L792.25,631.681 L792.353,632.408 L792.24,633.134 L791.976,634.827 L792.214,636.773 L792.317,637.608 L792.4,638.518 L792.539,640.032 L792.376,641.92 L792.278,643.055 L791.303,645.347 L790.211,647.034 L788.521,648.595 L787.797,649.255 L787.073,649.916 L786.354,652.436 L786.212,652.935 L786.193,655.596 L786.225,655.94 L786.416,658.018 L785.322,660.067 L783.873,661.388 L783.628,662.145 L783.015,664.044 L782.996,666.705 L783.581,668.888 L783.992,670.019 L784.287,670.828 L784.873,672.645 L784.991,673.011 L785.308,673.662 L785.937,674.954 L786.884,676.897 L787.588,679.08 L788.173,681.262 L788.879,683.202 L789.225,685.262 L789.805,688.049 L788.694,692.518 L788.266,692.964 L787.386,690.815 L785.714,689.714 L785.714,689.714 L782.595,689.693 L780.906,691.012 L779.814,692.698 L777.886,693.894 L776.809,692.593 L776.577,692.312 L776.102,691.693 L775.269,690.609 L774.124,689.117 L773.962,688.906 L772.291,687.563 L770.622,686.099 L767.864,685.838 L767.864,685.838 L767.011,687.768 L765.319,689.45 L765.319,689.45 L762.798,689.674 L760.158,689.655 L760.158,689.655 L757.396,689.998 L757.396,689.998 L754.639,689.615 L751.64,689.594 L751.639,689.594 L749.619,690.063 L749.115,690.18 L748.108,690.318 L746.593,690.525 L744.904,691.844 L742.739,692.433 L741.211,693.07 L740.453,693.385 L740.134,693.563 L738.525,694.46 L738.525,694.46 L735.889,693.835 L733.858,692.61 L732.188,691.267 L730.881,689.563 L729.935,687.62 L728.87,685.676 L727.935,684.545 L727.562,684.093 L725.89,682.992 L723.257,682.005 L722.236,681.572 L721.224,681.142 L720.279,679.199 L718.609,677.856 L718.023,676.038 L717.905,675.672 L717.324,673.126 L717.47,671.953 L717.58,671.071 L719.269,669.753 L720.362,668.066 L720.971,666.92 L721.578,665.777 L720.68,665.054 L719.909,664.433 L717.514,663.81 L714.518,663.424 L714.518,663.424 L712.832,663.816 L711.994,664.01 L711.994,664.01 L709.234,663.989 L707.199,663.49 L707.001,663.233 L705.892,661.786 L704.611,661.243 L703.859,660.924 L703.858,660.924 L701.099,660.903 L699.17,662.219 L697.243,663.173 L697.243,663.173 L695.722,662.827 L694.488,662.546 L693.179,661.79 L692.577,661.443 L691.512,659.498 L689.964,658.034 L689.843,657.969 L687.932,656.929 L685.175,656.666 L682.235,656.524 L682.177,656.521 L682.177,656.521 L679.776,656.624 L678.269,655.3 L678.108,655.159 L677.86,654.835 L676.802,653.455 L676.56,651.736 L676.461,651.031 L676.294,649.655 L676.123,648.245 L676.123,648.245 L676.392,647.244 L676.74,645.951 L677.169,644.804 L677.598,643.658 L677.742,640.633 L676.68,638.325 L675.735,636.381 L674.791,634.439 L673.487,632.49 L672.42,630.909 L671.399,629.385 L671.399,629.385 L672.127,629.259 L673.027,628.519 L674.021,623.582 L673.626,618.464 L673.611,618.271 L673.77,617.886 L675.632,613.384 L675.416,612.159 L673.198,609.404 L665.871,603.126 L657.215,601.274 L651.61,600.752 L648.972,597.807 L648.175,593.508 L648.231,590.419 L650.184,586.516 L651.02,582.2 L652.859,579.592 L652.586,575.276 L648.176,568.129 L647.565,564.92 L648.623,562.43 L648.921,558.7 L647.928,554.514 L649.699,551.377 L649.685,546.096 L649.684,545.778 L650.006,545.273 L651.421,543.055 L651.9,540.955 L651.708,534.297 L652.644,525.41 L652.733,524.56 L653.76,523.221 L657.351,522.328 L658.452,521.484 L661.443,519.189 L660.109,516.596 L657.084,516.105 L656.522,515.11 L655.89,513.991 L658.622,512.582 L661.876,507.695 L664.024,506.085 L665.345,506.51 L666.017,506.26 L667.745,505.617 L668.174,504.512 L667.548,501.956 L667.174,501.31 L664.724,500.907 L653.236,503.363 L649.029,501.866 L647.65,504.093 L647.54,504.27 L646.489,504.79 L645.819,504.623 L639.532,503.063 L635.224,503.763 L636.795,500.34 L637.149,499.57 L639.61,498.773 L641.987,498.003 L642.823,496.175 L640.848,491.742 L637.821,490.379 L636.44,491.703 L636.02,492.106 L635.149,491.856 L634.494,491.668 L632.321,480.297 L629.536,476.987 L623.98,474.928 L623.491,472.062 L625.662,470.225 L627.393,467.14 L626.727,462.136 L625.556,459.825 L623.549,460.43 L622.64,459.914 L621.618,455.779 L620.67,455.055 L618.249,454.858 L615.639,455.24 L614.521,456.143 L612.652,457.651 L611.894,459.884 L610.399,460.649 L609.423,460.704 L607.205,460.828 L605.494,459.248 L602.265,457.613 L600.181,457.719 L599.624,459.104 L595.094,454.865 L592.921,453.311 L591.694,452.792 L586.407,456.416 L586.619,457.356 L587.553,461.497 L585.274,461.487 L585.126,461.549 L581.771,462.949 L580.309,462.304 L579.401,458.138 L576.859,454.299 L575.185,453.279 L573.87,453.433 L571.78,451.765 L570.589,446.072 L572.64,442.793 L569.147,440.927 L566.02,437.135 L565.193,435.551 L567.212,431.256 L565.54,430.027 L563.237,425.942 L563.391,421.422 L561.662,419.706 L560.561,410.965 L559.374,408.362 L559.283,408.162 L554.866,406.745 L553.666,406.36 L549.203,402.564 L548.575,402.03 L526.582,393.51 L524.047,392.527 L523.676,389.906 L523.239,386.82 L521.922,382.919 L516.534,378.657 L515.257,375.224 L497.077,369.597 L494.112,368.424 L493.364,368.635 L492.723,368.815 L492.443,368.232 L491.174,365.585 L479.739,362.994 L472.184,361.282 L471.223,357.793 L470.619,355.604 L468.426,350.711 L467.588,348.842 L467.803,345.858 L467.814,345.712 L467.754,345.474 L467.266,343.526 L463.886,335.302 L459.098,327.931 L459.757,325.573 L460.296,325.26 L462.306,324.095 L465.703,323.88 L466.897,322.46 L466.244,317.973 L467.805,313.664 L466.821,311.6 L466.013,306.656 L465.97,306.396 L466.137,306.04 L466.756,304.724 L468.391,301.244 L468.545,301.099 L469.859,299.854 L470.482,299.264 L473.685,294.304 L473.93,293.926 L477.756,291.631 L478.964,290.906 L480.093,287.754 L482.438,285.962 L485.403,284.778 L486.248,281.302 L489.212,279.164 L488.619,272.717 L486.845,267.649 L486.151,266.294 L486.422,261.764 L487.535,257.035 L488.109,252.934 L490.524,250.303 L493.355,243.942 L493.263,241.857 L495.943,238.233 L496.162,236.804 L495.395,232.534 L494.332,228.178 L494.533,226.479 L496.611,224.684 L496.252,220.584 L496.736,218.318 L496.753,218.301 L497.905,217.178 L500.599,216.272 L503.284,216.49 L503.354,216.496 L503.701,216.093 L505.479,214.028 L506.384,213.535 L509.096,212.055 L509.549,211.808 L511.658,211.197 L513.29,210.725 L514.337,205.332 L512.399,201.309 L511.186,198.122 L511.181,198.11 L510.861,181.113 L510.792,177.465 L510.41,175.508 L509.891,172.857 L509.594,165.14 L507.491,160.629 L504.135,156.573 L498.96,154.917 L484.838,154.703 L478.822,155.701 L476.183,156.804 L468.294,160.1 L465.942,160.31 L463.782,160.502 L459.473,161.7 L451.752,160.991 L451.752,160.991 L449.25,159.188 L449.248,159.187 L444.841,156.176 L438.321,155.872 L437.172,154.436 L437.119,154.368 L437.016,153.801 L436.521,151.062 L436.54,150.969 L438.929,139.536 L438.929,139.536 L443.843,140.943 L454.08,143.03 L456.176,143.457 L458.139,144.156 L459.281,144.562 L463.42,145.247 L469.006,146.172 L473.399,147.411 L475.419,147.981 L477.301,148.303 L484.241,149.489 L486.372,150.306 L487.65,150.796 L491.76,150.899 L495.173,151.69 L499.924,152.791"/>
</g>

<g fill="none" stroke="#000000" stroke-opacity="1" stroke-width="1" stroke-linecap="square" stroke-linejoin="bevel" transform="matrix(11.8095,0,0,11.8095,1.08469e-14,0)"
font-family="Cantarell" font-size="45.8333" font-weight="400" font-style="normal" 
>
</g>

<g fill="none" stroke="#000000" stroke-opacity="1" stroke-width="1" stroke-linecap="square" stroke-linejoin="bevel" transform="matrix(11.8095,0,0,11.8095,1.08469e-14,0)"
font-family="Cantarell" font-size="45.8333" font-weight="400" font-style="normal" 
>
</g>

<g fill="none" stroke="#000000" stroke-opacity="1" stroke-width="1" stroke-linecap="square" stroke-linejoin="bevel" transform="matrix(11.8095,0,0,11.8095,1.08469e-14,0)"
font-family="Cantarell" font-size="45.8333" font-weight="400" font-style="normal" 
>
</g>

<g fill="none" stroke="#000000" stroke-opacity="1" stroke-width="1" stroke-linecap="square" stroke-linejoin="bevel" transform="matrix(1,0,0,1,0,0)"
font-family="Cantarell" font-size="45.8333" font-weight="400" font-style="normal" 
>
</g>

<g fill="none" stroke="#000000" stroke-opacity="1" stroke-width="1" stroke-linecap="square" stroke-linejoin="bevel" transform="matrix(11.8095,0,0,11.8095,1.08469e-14,0)"
font-family="Cantarell" font-size="45.8333" font-weight="400" font-style="normal" 
>
</g>

<g fill="none" stroke="#000000" stroke-opacity="1" stroke-width="1" stroke-linecap="square" stroke-linejoin="bevel" transform="matrix(11.8095,0,0,11.8095,1.08469e-14,0)"
font-family="Cantarell" font-size="45.8333" font-weight="400" font-style="normal" 
>
</g>

<g fill="none" stroke="#000000" stroke-opacity="1" stroke-width="1" stroke-linecap="square" stroke-linejoin="bevel" transform="matrix(11.8095,0,0,11.8095,0,0)"
font-family="Cantarell" font-size="45.8333" font-weight="400" font-style="normal" 
>
</g>

<g fill="none" stroke="#000000" stroke-opacity="1" stroke-width="1" stroke-linecap="square" stroke-linejoin="bevel" transform="matrix(11.8095,0,0,11.8095,0,0)"
font-family="Cantarell" font-size="45.8333" font-weight="400" font-style="normal" 
>
</g>

<g fill="none" stroke="#000000" stroke-opacity="1" stroke-width="1" stroke-linecap="square" stroke-linejoin="bevel" transform="matrix(11.8095,0,0,11.8095,0,0)"
font-family="Cantarell" font-size="45.8333" font-weight="400" font-style="normal" 
>
</g>

<g fill="none" stroke="#000000" stroke-opacity="1" stroke-width="1" stroke-linecap="square" stroke-linejoin="bevel" transform="matrix(11.8095,0,0,11.8095,0,0)"
font-family="Cantarell" font-size="45.8333" font-weight="400" font-style="normal" 
>
</g>

<g fill="none" stroke="#000000" stroke-opacity="1" stroke-width="1" stroke-linecap="square" stroke-linejoin="bevel" transform="matrix(1,0,0,1,0,0)"
font-family="Cantarell" font-size="45.8333" font-weight="400" font-style="normal" 
>
</g>
</g>
</svg>
